<svg xmlns="http://www.w3.org/2000/svg" fill="none" viewBox="0 0 24 24">
  <g id="local-library">
    <path id="Union" fill="#000000" d="M19.0986 8.55859C20.2142 8.53959 21 9.50189 21 10.5v7c0 1.1287 -0.9028 1.9421 -1.8936 2.0469 -2.2584 0.239 -4.1754 1.372 -6.5332 3.0224 -0.3442 0.2409 -0.8022 0.2409 -1.1464 0 -2.35778 -1.6504 -4.27478 -2.7834 -6.53325 -3.0224C3.90285 19.4421 3 18.6287 3 17.5v-7c0 -0.99811 0.78581 -1.96041 1.90137 -1.94141l0.22754 0.01758 0.27246 0.04102C7.91563 9.02945 10.2196 10.4671 12 11.7578c1.8445 -1.3372 4.2511 -2.83259 6.8711 -3.18163zM19 10.5801c-2.2985 0.3508 -4.5279 1.8153 -6.4004 3.2197 -0.3555 0.2665 -0.8437 0.2665 -1.1992 0C9.52788 12.3954 7.29849 10.9309 5 10.5801V17.5l0.01172 0.0156c0.01852 0.0191 0.05122 0.0377 0.0918 0.042 2.58655 0.2737 4.72594 1.4942 6.89648 2.9785 2.1705 -1.4843 4.3099 -2.7048 6.8965 -2.9785 0.0406 -0.0043 0.0733 -0.0229 0.0918 -0.042L19 17.5zM12 1.5c2.2091 0 4 1.79086 4 4s-1.7909 4 -4 4c-2.20914 0 -4 -1.79086 -4 -4s1.79086 -4 4 -4m0 2c-1.1046 0 -2 0.89543 -2 2s0.8954 2 2 2 2 -0.89543 2 -2 -0.8954 -2 -2 -2" stroke-width="1"></path>
  </g>
</svg>