<svg xmlns="http://www.w3.org/2000/svg" fill="none" viewBox="0 0 48 48" id="Shield-Lock--Streamline-Outlined-Material">
  <desc>
    Shield Lock Streamline Icon: https://streamlinehq.com
  </desc>
  <path fill="#000000" d="M24 43.9502c-4.6667 -1.1667 -8.5 -3.875 -11.5 -8.125S8 26.9169 8 21.8502v-11.9l16 -6 16 6v11.9c0 5.0667 -1.5 9.725 -4.5 13.975s-6.8333 6.9583 -11.5 8.125Zm0 -3.1c3.8333 -1.2667 6.9583 -3.6583 9.375 -7.175C35.7917 30.1585 37 26.2169 37 21.8502v-9.8l-13 -4.9 -13 4.9v9.8c0 4.3667 1.2083 8.3083 3.625 11.825s5.5417 5.9083 9.375 7.175Zm-4.5 -8.85h9c0.4333 0 0.7917 -0.1417 1.075 -0.425s0.425 -0.6417 0.425 -1.075v-7c0 -0.4333 -0.1417 -0.7917 -0.425 -1.075s-0.6417 -0.425 -1.075 -0.425H28v-2c0 -1.1 -0.3917 -2.0417 -1.175 -2.825 -0.7833 -0.7833 -1.725 -1.175 -2.825 -1.175s-2.0417 0.3917 -2.825 1.175c-0.7833 0.7833 -1.175 1.725 -1.175 2.825v2h-0.5c-0.4333 0 -0.7917 0.1417 -1.075 0.425s-0.425 0.6417 -0.425 1.075v7c0 0.4333 0.1417 0.7917 0.425 1.075s0.6417 0.425 1.075 0.425Zm2 -10v-2c0 -0.6667 0.25 -1.225 0.75 -1.675 0.5 -0.45 1.0833 -0.675 1.75 -0.675 0.6667 0 1.25 0.225 1.75 0.675 0.5 0.45 0.75 1.0083 0.75 1.675v2h-5Z" stroke-width="1"></path>
</svg>