<svg xmlns="http://www.w3.org/2000/svg" fill="none" viewBox="0 0 24 24">
  <path fill="#000000" fill-rule="evenodd" d="M11.5859 0.0896335c0.263 -0.1195113 0.5652 -0.1195113 0.8282 0l11 4.9999965c0.3568 0.16234 0.5859 0.51812 0.5859 0.91016V17.9998c0 0.392 -0.2291 0.7478 -0.5859 0.9101l-11 5c-0.263 0.1196 -0.5652 0.1196 -0.8282 0l-10.999962 -5C0.229111 18.7476 0 18.3918 0 17.9998V5.99979c0 -0.39204 0.229112 -0.74782 0.585938 -0.91016zM2 17.3553l9 4.0908v-9.8028L2 7.55252zm16.5 -8.21196v3.67776l-2 0.9092v-3.6788L13 11.6433v9.8028l9 -4.0908V7.55252zM3.41602 5.99979 12 9.90116l3.083 -1.40235 -8.58398 -3.90136zm5.49902 -2.50098L17.499 7.40116l3.084 -1.40137L12 2.09745z" clip-rule="evenodd" stroke-width="1"></path>
</svg>