<svg xmlns="http://www.w3.org/2000/svg" viewBox="0 0 24 24" fill="none" stroke="#000000" stroke-linecap="round" stroke-linejoin="round" id="Rosette-Discount-Check--Streamline-Tabler">
  <desc>
    Rosette Discount Check Streamline Icon: https://streamlinehq.com
  </desc>
  <path d="M5 7.2A2.2 2.2 0 0 1 7.2 5h1a2.2 2.2 0 0 0 1.55 -0.64l0.7 -0.7a2.2 2.2 0 0 1 3.12 0l0.7 0.7c0.412 0.41 0.97 0.64 1.55 0.64h1a2.2 2.2 0 0 1 2.2 2.2v1c0 0.58 0.23 1.138 0.64 1.55l0.7 0.7a2.2 2.2 0 0 1 0 3.12l-0.7 0.7a2.2 2.2 0 0 0 -0.64 1.55v1a2.2 2.2 0 0 1 -2.2 2.2h-1a2.2 2.2 0 0 0 -1.55 0.64l-0.7 0.7a2.2 2.2 0 0 1 -3.12 0l-0.7 -0.7a2.2 2.2 0 0 0 -1.55 -0.64h-1a2.2 2.2 0 0 1 -2.2 -2.2v-1a2.2 2.2 0 0 0 -0.64 -1.55l-0.7 -0.7a2.2 2.2 0 0 1 0 -3.12l0.7 -0.7A2.2 2.2 0 0 0 5 8.2v-1" stroke-width="1"></path>
  <path d="m9 12 2 2 4 -4" stroke-width="1"></path>
</svg>