<svg xmlns="http://www.w3.org/2000/svg" fill="none" viewBox="0 0 24 24">
  <g id="database-search">
    <path id="Union" fill="#000000" d="M15.5 12c2.4853 0 4.5 2.0147 4.5 4.5 0 0.8804 -0.2544 1.7009 -0.6914 2.3945l1.8984 1.8985c0.3906 0.3905 0.3906 1.0235 0 1.414 -0.3905 0.3906 -1.0235 0.3906 -1.414 0l-1.8985 -1.8984c-0.6936 0.437 -1.5141 0.6914 -2.3945 0.6914 -2.4853 0 -4.5 -2.0147 -4.5 -4.5s2.0147 -4.5 4.5 -4.5m0 2c-1.3807 0 -2.5 1.1193 -2.5 2.5s1.1193 2.5 2.5 2.5 2.5 -1.1193 2.5 -2.5 -1.1193 -2.5 -2.5 -2.5M9 2c1.7343 0 3.3459 0.23256 4.5586 0.63672 0.6011 0.20037 1.16 0.46182 1.5889 0.7998C15.565 3.76563 16 4.28624 16 5v5.0205c-0.1651 -0.0126 -0.3317 -0.0205 -0.5 -0.0205 -1.7947 0 -3.4204 0.7264 -4.5967 1.9023C10.2965 11.9658 9.65708 12 9 12c-1.73425 0 -3.34593 -0.2326 -4.55859 -0.6367 -0.15026 -0.0501 -0.29781 -0.1042 -0.44141 -0.1621v1.7099c0.01769 0.0189 0.04609 0.0468 0.09082 0.0821 0.17839 0.1405 0.49811 0.3112 0.98242 0.4726C6.03211 13.7854 7.42072 14 9 14c0.16963 0 0.33702 -0.004 0.50195 -0.0088 -0.26197 0.6256 -0.42755 1.3009 -0.48144 2.0078 -0.00684 0 -0.01367 0.001 -0.02051 0.001 -1.73425 0 -3.34593 -0.2326 -4.55859 -0.6367 -0.60113 -0.2004 -1.16001 -0.4618 -1.58887 -0.7998C2.43501 14.2344 2 13.7138 2 13V5c0 -0.71376 0.43501 -1.23437 0.85254 -1.56348 0.42886 -0.33798 0.98774 -0.59943 1.58887 -0.7998C5.65407 2.23256 7.26575 2 9 2m4.5586 5.36328C12.3459 7.76744 10.7343 8 9 8c-1.73425 0 -3.34593 -0.23256 -4.55859 -0.63672C4.29115 7.3132 4.1436 7.25913 4 7.20117v1.70899c0.01766 0.01894 0.04553 0.04731 0.09082 0.083 0.17839 0.14052 0.49811 0.3112 0.98242 0.47266C6.03211 9.78544 7.42072 10 9 10c1.5793 0 2.9679 -0.21456 3.9268 -0.53418 0.4843 -0.16146 0.804 -0.33214 0.9824 -0.47266 0.0453 -0.03569 0.0731 -0.06406 0.0908 -0.083V7.20117c-0.1436 0.05796 -0.2912 0.11203 -0.4414 0.16211M9 4c-1.57928 0 -2.96789 0.21456 -3.92676 0.53418 -0.47592 0.15866 -0.79254 0.32673 -0.97265 0.46582 0.18011 0.13909 0.49673 0.30716 0.97265 0.46582C6.03211 5.78544 7.42072 6 9 6c1.5793 0 2.9679 -0.21456 3.9268 -0.53418 0.4753 -0.15848 0.7914 -0.32682 0.9716 -0.46582 -0.1802 -0.139 -0.4963 -0.30734 -0.9716 -0.46582C11.9679 4.21456 10.5793 4 9 4" stroke-width="1"></path>
  </g>
</svg>