<svg xmlns="http://www.w3.org/2000/svg" fill="none" viewBox="0 0 24 24">
  <g id="intellectual">
    <path id="Union" fill="#000000" d="M12 2c1.8971 0 3.4532 0.40767 4.7246 1.15234 1.2703 0.74407 2.1953 1.78867 2.8877 2.96582 1.3544 2.30272 1.8803 5.24644 2.3682 7.68554 0.0587 0.2937 -0.0172 0.5984 -0.2071 0.8301S21.2996 15 21 15h-2v3c0 1.1046 -0.8954 2 -2 2h-2v1c0 0.5523 -0.4477 1 -1 1s-1 -0.4477 -1 -1v-2c0 -0.5523 0.4477 -1 1 -1h3v-4c0 -0.5523 0.4477 -1 1 -1h1.7764c-0.4367 -2.1473 -0.9221 -4.225 -1.8887 -5.86816 -0.5575 -0.94767 -1.2578 -1.71581 -2.1748 -2.25293C14.7968 4.34239 13.6028 4 12 4c-3.86599 0 -7 3.13401 -7 7 0 2.2099 1.02289 4.1803 2.625 5.4648 0.23669 0.1898 0.37492 0.477 0.375 0.7803V21c0 0.5523 -0.44772 1 -1 1s-1 -0.4477 -1 -1v-3.293C4.16055 16.0603 3 13.6657 3 11c0 -4.97056 4.02944 -9 9 -9M8.46484 7.46484c1.69126 -1.6913 4.29266 -1.91829 6.22756 -0.67968 0.5696 0.36466 0.7601 1.08102 0.5215 1.71386C14.8661 9.42131 14.1939 10.8061 13 12s-2.5787 1.8661 -3.50098 2.2139c-0.63284 0.2386 -1.3492 0.0481 -1.71386 -0.5215 -1.23861 -1.9349 -1.01162 -4.53625 0.67968 -6.22756" stroke-width="1"></path>
  </g>
</svg>