<svg xmlns="http://www.w3.org/2000/svg" fill="none" viewBox="0 0 24 24">
  <g id="cloud-circle">
    <path id="Union" fill="#000000" d="M12 2c5.5228 0 10 4.47715 10 10 0 5.5228 -4.4772 10 -10 10 -5.52285 0 -10 -4.4772 -10 -10C2 6.47715 6.47715 2 12 2m0 2c-4.41828 0 -8 3.58172 -8 8 0 4.4183 3.58172 8 8 8 4.4183 0 8 -3.5817 8 -8 0 -4.41828 -3.5817 -8 -8 -8m0 3c1.8173 0 3.3317 1.29283 3.6758 3.0088 1.4368 0.0907 2.5742 1.2815 2.5742 2.7412 0 1.5188 -1.2312 2.75 -2.75 2.75H9c-1.79493 0 -3.25 -1.4551 -3.25 -3.25 0 -1.6862 1.28409 -3.07259 2.92773 -3.23438C9.30374 7.8188 10.5543 7 12 7m0 2c-0.7996 0 -1.4767 0.53741 -1.6846 1.2725l-0.205 0.7275H9c-0.69036 0 -1.25 0.5596 -1.25 1.25S8.30964 13.5 9 13.5h6.5c0.4142 0 0.75 -0.3358 0.75 -0.75s-0.3358 -0.75 -0.75 -0.75h-1.75v-1.25C13.75 9.7835 12.9665 9 12 9" stroke-width="1"></path>
  </g>
</svg>