<svg xmlns="http://www.w3.org/2000/svg" fill="none" viewBox="-0.5 -0.5 48 48" id="Aws--Streamline-Svg-Logos.svg" height="48" width="48"><desc>Aws Streamline Icon: https://streamlinehq.com</desc><path fill="#252F3E" d="M13.458498958333333 19.734663541666666c0 0.5663010416666667 0.061197916666666664 1.02548125 0.1683677083333333 1.3622166666666666 0.12244479166666665 0.3367354166666666 0.27548854166666664 0.7040697916666666 0.4897791666666666 1.1020520833333332 0.07652187499999999 0.12244479166666665 0.10712083333333333 0.2448895833333333 0.10712083333333333 0.35201041666666666 0 0.15309270833333333 -0.091796875 0.3061364583333333 -0.2908125 0.4591802083333333l-0.9642833333333333 0.642871875c-0.13771979166666665 0.09184583333333332 -0.27548854166666664 0.13776875 -0.3979333333333333 0.13776875 -0.15304374999999998 0 -0.3061364583333333 -0.07657083333333334 -0.4591802083333333 -0.21429062499999998 -0.21429062499999998 -0.22961458333333332 -0.39798229166666665 -0.4745041666666666 -0.5510260416666666 -0.7193937499999999 -0.15304374999999998 -0.26021354166666666 -0.3061364583333333 -0.5510260416666666 -0.4745041666666666 -0.9030854166666666 -1.1938489583333332 1.4081885416666666 -2.693834375 2.112258333333333 -4.499956249999999 2.112258333333333 -1.2856947916666666 0 -2.3112103125 -0.367334375 -3.0612079166666666 -1.1020520833333332 -0.7499927083333333 -0.73466875 -1.1326461458333332 -1.7142760416666667 -1.1326461458333332 -2.9387239583333336 0 -1.30101875 0.4591802083333333 -2.357147916666667 1.3928498958333333 -3.1530635416666666 0.9336696875 -0.7959156249999999 2.17345625 -1.1938979166666668 3.749963541666667 -1.1938979166666668 0.5204270833333333 0 1.0561291666666666 0.04592291666666666 1.6224791666666667 0.12249374999999998 0.5663010416666667 0.07652187499999999 1.1479260416666666 0.19896666666666665 1.7601989583333333 0.3367354166666666v-1.1173760416666667c0 -1.16325 -0.24493854166666665 -1.9744895833333334 -0.7193937499999999 -2.448944791666667 -0.48982812499999995 -0.4745041666666666 -1.3163427083333332 -0.7040697916666666 -2.4949166666666667 -0.7040697916666666 -0.5357020833333334 0 -1.086728125 0.061197916666666664 -1.6530291666666665 0.19896666666666665 -0.56635 0.13776875 -1.1173270833333333 0.3061364583333333 -1.6530585416666665 0.5203781249999999 -0.244899375 0.10716979166666667 -0.4285714583333333 0.1683677083333333 -0.535711875 0.19901562499999997 -0.10714531249999999 0.030598958333333332 -0.18367208333333332 0.04592291666666666 -0.244899375 0.04592291666666666 -0.21428083333333334 0 -0.3214261458333333 -0.15309270833333333 -0.3214261458333333 -0.4745041666666666v-0.7499927083333333c0 -0.2448895833333333 0.030613645833333335 -0.42858124999999997 0.10714531249999999 -0.5357020833333334 0.07652677083333333 -0.10716979166666667 0.21428083333333334 -0.21429062499999998 0.42856656249999997 -0.32146041666666664 0.535711875 -0.27548854166666664 1.1785788541666666 -0.505103125 1.9285715625 -0.6887458333333333 0.7499927083333333 -0.19896666666666665 1.5459083333333332 -0.2908125 2.387746875 -0.2908125 1.8213968749999998 0 3.1530145833333334 0.41325729166666664 4.010177083333334 1.239771875 0.8418385416666666 0.8265145833333333 1.2704197916666666 2.081610416666667 1.2704197916666666 3.7652875v4.959185416666666h0.030598958333333332Zm-6.21428125 2.3265c0.505103125 0 1.0255302083333333 -0.09184583333333332 1.57655625 -0.2755375 0.5509770833333333 -0.18364270833333332 1.0408052083333335 -0.5203781249999999 1.4540625 -0.9795583333333332 0.2448895833333333 -0.2908125 0.42858124999999997 -0.6122239583333333 0.5203781249999999 -0.9796072916666667 0.09184583333333332 -0.367334375 0.15309270833333333 -0.8111906249999999 0.15309270833333333 -1.3316177083333334v-0.6428229166666666c-0.4439052083333333 -0.10716979166666667 -0.9183604166666666 -0.19901562499999997 -1.4081885416666666 -0.26021354166666666 -0.4897791666666666 -0.06124687499999999 -0.9642833333333333 -0.09184583333333332 -1.4387385416666665 -0.09184583333333332 -1.0255302083333333 0 -1.7755229166666666 0.19896666666666665 -2.2806260416666664 0.6122239583333333 -0.505103125 0.41325729166666664 -0.7499927083333333 0.9949312499999999 -0.7499927083333333 1.7601989583333333 0 0.7193937499999999 0.18369166666666664 1.2550958333333333 0.56635 1.6224302083333333 0.367334375 0.3826583333333333 0.9030364583333333 0.56635 1.60710625 0.56635Zm12.29079375 1.6530291666666665c-0.2755375 0 -0.45922916666666663 -0.04592291666666666 -0.5816739583333332 -0.15304374999999998 -0.12244479166666665 -0.09184583333333332 -0.229565625 -0.3061364583333333 -0.3214114583333333 -0.5969489583333334L15.03500625 11.132635416666666c-0.09184583333333332 -0.3061364583333333 -0.13776875 -0.505103125 -0.13776875 -0.6122239583333333 0 -0.2448895833333333 0.12244479166666665 -0.3826583333333333 0.3673833333333333 -0.3826583333333333h1.4999854166666666c0.2908125 0 0.4897791666666666 0.04592291666666666 0.5969 0.15304374999999998 0.12249374999999998 0.09184583333333332 0.21429062499999998 0.3061364583333333 0.3061364583333333 0.5969489583333334l2.5714385416666667 10.1326125 2.387746875 -10.1326125c0.07652187499999999 -0.3061364583333333 0.1683677083333333 -0.505103125 0.2908125 -0.5969489583333334s0.3367354166666666 -0.15304374999999998 0.6122239583333333 -0.15304374999999998h1.224496875c0.2908125 0 0.4897791666666666 0.04592291666666666 0.6122239583333333 0.15304374999999998 0.12244479166666665 0.09184583333333332 0.22961458333333332 0.3061364583333333 0.2908125 0.5969489583333334l2.4183458333333334 10.255057291666667 2.6479604166666664 -10.255057291666667c0.09184583333333332 -0.3061364583333333 0.19896666666666665 -0.505103125 0.3061364583333333 -0.5969489583333334 0.12244479166666665 -0.09184583333333332 0.3214114583333333 -0.15304374999999998 0.5969 -0.15304374999999998h1.4234635416666668c0.24493854166666665 0 0.3826583333333333 0.12244479166666665 0.3826583333333333 0.3826583333333333 0 0.07652187499999999 -0.015274999999999999 0.15304374999999998 -0.030598958333333332 0.2448895833333333s-0.04592291666666666 0.21429062499999998 -0.10712083333333333 0.3826583333333333l-3.6887656250000003 11.831564583333332c-0.09184583333333332 0.3061364583333333 -0.19896666666666665 0.505103125 -0.32146041666666664 0.5969489583333334 -0.12244479166666665 0.091796875 -0.3214114583333333 0.15304374999999998 -0.581625 0.15304374999999998h-1.31629375c-0.2908125 0 -0.4897791666666666 -0.04592291666666666 -0.6122729166666666 -0.15304374999999998 -0.12244479166666665 -0.10716979166666667 -0.229565625 -0.3061364583333333 -0.2908125 -0.6122729166666666L24.111489583333334 13.091801041666667l-2.357147916666667 9.857123958333334c-0.07652187499999999 0.30608749999999996 -0.1683677083333333 0.505103125 -0.2908125 0.6122239583333333 -0.12244479166666665 0.10712083333333333 -0.3367354166666666 0.15304374999999998 -0.6122239583333333 0.15304374999999998h-1.31629375Zm19.66822708333333 0.41330625c-0.7959156249999999 0 -1.5918312499999998 -0.09184583333333332 -2.3570989583333333 -0.2755375 -0.7653166666666666 -0.18369166666666664 -1.362265625 -0.3826583333333333 -1.7601989583333333 -0.6122239583333333 -0.2448895833333333 -0.13776875 -0.41325729166666664 -0.2908125 -0.4745041666666666 -0.42858124999999997 -0.061197916666666664 -0.13776875 -0.09184583333333332 -0.2908125 -0.09184583333333332 -0.42858124999999997v-0.7805916666666667c0 -0.3214114583333333 0.12244479166666665 -0.4745041666666666 0.35205937499999995 -0.4745041666666666 0.09184583333333332 0 0.18369166666666664 0.015323958333333334 0.27548854166666664 0.04592291666666666 0.09184583333333332 0.030598958333333332 0.22961458333333332 0.09184583333333332 0.3826583333333333 0.15304374999999998 0.5204270833333333 0.22961458333333332 1.086728125 0.41330625 1.6836770833333332 0.5357510416666666 0.6122239583333333 0.12244479166666665 1.2091729166666667 0.18364270833333332 1.8213968749999998 0.18364270833333332 0.9642833333333333 0 1.7142760416666667 -0.1683677083333333 2.234703125 -0.505103125 0.5204270833333333 -0.3367354166666666 0.7959156249999999 -0.8265145833333333 0.7959156249999999 -1.4540625 0 -0.42858124999999997 -0.13776875 -0.7805916666666667 -0.41325729166666664 -1.0714041666666667 -0.2755375 -0.2908125 -0.7959156249999999 -0.5510260416666666 -1.5459083333333332 -0.7959156249999999l-2.2193791666666667 -0.6887947916666667c-1.1173270833333333 -0.35201041666666666 -1.9438906249999999 -0.8724375 -2.44899375 -1.5611833333333334 -0.505103125 -0.6734708333333332 -0.7652677083333332 -1.4234635416666668 -0.7652677083333332 -2.2193791666666667 0 -0.642871875 0.13771979166666665 -1.209221875 0.41325729166666664 -1.6990010416666665 0.27548854166666664 -0.4897791666666666 0.6428229166666666 -0.9183604166666666 1.102003125 -1.2550958333333333 0.4591802083333333 -0.35201041666666666 0.9796072916666667 -0.6122239583333333 1.5918312499999998 -0.7959156249999999 0.6122729166666666 -0.18364270833333332 1.2550958333333333 -0.26021354166666666 1.9285666666666665 -0.26021354166666666 0.3367354166666666 0 0.6887947916666667 0.015323958333333334 1.0255302083333333 0.06124687499999999 0.35201041666666666 0.04592291666666666 0.6734708333333332 0.10712083333333333 0.9948822916666665 0.1683677083333333 0.3061364583333333 0.07652187499999999 0.5969489583333334 0.15304374999999998 0.8724375 0.2448895833333333 0.2755375 0.09184583333333332 0.4897791666666666 0.18369166666666664 0.642871875 0.2755375 0.21429062499999998 0.12244479166666665 0.367334375 0.2448895833333333 0.4591802083333333 0.382609375 0.09184583333333332 0.12244479166666665 0.13776875 0.2908125 0.13776875 0.505103125v0.7193937499999999c0 0.3214114583333333 -0.12249374999999998 0.4897791666666666 -0.35205937499999995 0.4897791666666666 -0.12244479166666665 0 -0.3214114583333333 -0.061197916666666664 -0.581625 -0.18364270833333332 -0.8724375 -0.39798229166666665 -1.8520447916666667 -0.5969489583333334 -2.9387729166666667 -0.5969489583333334 -0.8724375 0 -1.5612322916666665 0.13776875 -2.0356875000000003 0.42858124999999997 -0.4745041666666666 0.2908125 -0.7193937499999999 0.73466875 -0.7193937499999999 1.3622166666666666 0 0.42858124999999997 0.15304374999999998 0.7959156249999999 0.4591802083333333 1.086728125 0.3061364583333333 0.2908125 0.8724375 0.581625 1.6836770833333332 0.8418385416666666l2.17345625 0.6887947916666667c1.102003125 0.35201041666666666 1.8979187499999999 0.8418385416666666 2.3724229166666664 1.4693864583333334 0.4745041666666666 0.6275479166666666 0.7040697916666666 1.3468927083333333 0.7040697916666666 2.1428083333333334 0 0.6581958333333333 -0.13771979166666665 1.2550958333333333 -0.3979333333333333 1.7755229166666666 -0.2755375 0.5203781249999999 -0.642871875 0.9795583333333332 -1.1173760416666667 1.3469416666666665 -0.4744552083333333 0.3826583333333333 -1.0408052083333335 0.658146875 -1.6989520833333334 0.8571135416666666 -0.6887458333333333 0.21429062499999998 -1.4081395833333332 0.32146041666666664 -2.188780208333333 0.32146041666666664Z" stroke-width="1"></path><path fill="#FF9900" d="M42.09633333333333 31.566032291666666c-5.035707291666666 3.7193645833333333 -12.351991666666667 5.693854166666667 -18.642794791666663 5.693854166666667 -8.816269791666667 0 -16.760102083333333 -3.2602333333333333 -22.760078020833333 -8.678550000000001 -0.47448556249999996 -0.42858124999999997 -0.04591802083333333 -1.01020625 0.5204074999999999 -0.6734708333333332C7.703642708333333 31.673153125000002 15.708672916666666 33.95377916666666 23.989289583333335 33.95377916666666c5.586684374999999 0 11.724394791666667 -1.1632989583333333 17.372326041666664 -3.5510458333333332 0.8418385416666666 -0.382609375 1.5612322916666665 0.5510260416666666 0.7347177083333333 1.1632989583333333Zm2.096934375 -2.387746875c-0.642871875 -0.8265635416666666 -4.255115625 -0.39798229166666665 -5.892869791666667 -0.19901562499999997 -0.4897791666666666 0.06124687499999999 -0.5663010416666667 -0.367334375 -0.12244479166666665 -0.6887458333333333 2.8775749999999998 -2.0204125 7.607145833333333 -1.4387874999999999 8.158122916666667 -0.7653166666666666 0.5510260416666666 0.6887947916666667 -0.15304374999999998 5.418365625 -2.8469270833333336 7.683667708333333 -0.41325729166666664 0.35201041666666666 -0.8111906249999999 0.1683677083333333 -0.6275479166666666 -0.2908614583333333 0.6122729166666666 -1.5152604166666668 1.9744895833333334 -4.9285375 1.3316666666666668 -5.739728124999999Z" stroke-width="1"></path></svg>