<svg width="595" height="179" viewBox="0 0 595 179" fill="none" xmlns="http://www.w3.org/2000/svg">
<path d="M184.569 142.007C185.997 144.155 188.615 145.706 191.947 145.706C196.112 145.706 201.467 143.2 201.467 135.682V98.45H209.797V136.517C209.797 147.496 201.11 154.059 192.185 154.059C185.878 154.059 180.999 151.076 177.905 146.899L184.569 142.007Z" fill="#1B208B"/>
<path d="M248.829 141.291H228.004L223.72 153.582H214.914L234.906 98.45H241.808L261.8 153.582H252.994L248.829 141.291ZM246.449 133.773L238.595 109.787H238.476L230.503 133.892H246.449V133.773Z" fill="#1B208B"/>
<path d="M267.75 98.45H276.08V126.851H276.199L298.809 98.45H308.686L291.074 120.169L310.59 153.582H300.713L285.719 126.613L276.08 136.756V153.582H267.75V98.45Z" fill="#1B208B"/>
<path d="M344.624 141.291H323.799L319.515 153.582H310.709L330.701 98.45H337.603L357.595 153.582H348.789L344.624 141.291ZM342.244 133.773L334.271 109.787H334.152L326.179 133.892H342.244V133.773Z" fill="#1B208B"/>
<path d="M363.545 98.45H384.965C389.606 98.45 393.176 99.524 396.151 102.149C399.245 104.775 401.625 108.951 401.625 113.963C401.625 121.123 397.579 126.851 390.915 129.238L403.648 153.701H393.89L382.585 130.193H371.875V153.701H363.545V98.45ZM371.875 122.555H384.489C390.796 122.555 393.89 118.498 393.89 113.844C393.89 110.98 392.819 108.832 391.153 107.519C389.606 106.326 387.94 105.849 385.084 105.849H371.994V122.555H371.875Z" fill="#1B208B"/>
<path d="M418.642 105.849H403.529V98.45H441.966V105.849H426.853V153.582H418.523V105.849H418.642Z" fill="#1B208B"/>
<path d="M470.407 141.291H449.582L445.298 153.582H436.492L456.484 98.45H463.386L483.378 153.582H474.572L470.407 141.291ZM468.027 133.773L460.054 109.787H459.935L451.962 133.892H468.027V133.773Z" fill="#1B208B"/>
<path d="M507.892 98.45H542.997V106.326H516.222V122.078H539.07V129.477H516.222V145.706H542.997V153.582H507.892V98.45Z" fill="#1B208B"/>
<path d="M550.732 98.45H585.837V106.326H559.062V122.078H581.91V129.477H559.062V145.706H585.837V153.582H550.732V98.45Z" fill="#1B208B"/>
<path d="M166.6 7.51801L126.616 51.3133C126.14 73.5093 120.785 107.042 97.223 137.591L131.971 146.303C189.924 91.648 166.6 7.51801 166.6 7.51801Z" fill="#FDB940"/>
<path d="M126.616 51.3133C126.973 35.9193 124.95 26.0147 124.95 26.0147L36.89 122.794L97.104 137.83C97.104 137.711 97.223 137.711 97.223 137.591L57.12 127.567L126.616 51.3133Z" fill="#FEB322"/>
<path d="M57.239 127.567L97.342 137.591C120.785 107.042 126.14 73.6287 126.616 51.3134L57.239 127.567Z" fill="#F98200"/>
<path d="M112.931 147.735C116.382 147.735 119.833 147.854 123.165 148.212L9.52002 120.049C9.52002 120.049 30.702 127.09 56.168 165.396C69.734 154.537 90.083 147.735 112.931 147.735Z" fill="#1B208B"/>
<path d="M478.38 108.235C477.547 107.758 476.833 107.042 476.357 106.207C475.881 105.371 475.643 104.417 475.643 103.462C475.643 102.507 475.881 101.553 476.357 100.717C476.833 99.882 477.547 99.166 478.38 98.6887C479.213 98.2113 480.165 97.9727 481.117 97.9727C482.069 97.9727 483.021 98.2113 483.854 98.6887C484.687 99.166 485.401 99.882 485.877 100.717C486.353 101.553 486.591 102.507 486.591 103.462C486.591 104.417 486.353 105.371 485.877 106.207C485.401 107.042 484.687 107.639 483.854 108.235C483.021 108.713 482.069 108.951 481.117 108.951C480.165 108.951 479.213 108.713 478.38 108.235ZM484.211 106.684C485.044 105.849 485.401 104.775 485.401 103.462C485.401 102.627 485.282 101.791 484.806 101.075C484.33 100.359 483.973 99.882 483.259 99.524C482.545 99.166 481.95 99.0467 481.117 99.0467C479.808 99.0467 478.737 99.4047 477.904 100.24C477.071 101.075 476.714 102.149 476.714 103.462C476.714 104.775 477.071 105.849 477.904 106.684C478.737 107.519 479.808 107.877 481.117 107.877C482.426 107.877 483.378 107.519 484.211 106.684ZM483.14 106.207C483.021 106.207 483.021 106.207 483.14 106.207H482.307C482.307 106.207 482.188 106.207 482.188 106.087L481.355 103.701C481.355 103.701 481.355 103.701 481.355 103.581C481.355 103.581 481.355 103.581 481.236 103.581H480.165C480.165 103.581 480.046 103.581 480.046 103.701V105.968C480.046 106.087 480.046 106.087 479.927 106.087H479.213C479.094 106.087 479.094 106.087 479.094 105.968V100.717C479.094 100.598 479.094 100.598 479.213 100.598H481.593C482.188 100.598 482.664 100.717 482.902 100.956C483.259 101.195 483.378 101.553 483.378 102.03C483.378 102.746 483.021 103.223 482.307 103.462C482.307 103.462 482.307 103.462 482.307 103.581L483.14 106.207ZM482.307 102.269C482.307 101.791 481.95 101.553 481.236 101.553H480.046C480.046 101.553 480.046 101.553 480.046 101.672V102.865C480.046 102.985 480.046 102.985 480.165 102.985H481.474C481.95 102.985 482.307 102.746 482.307 102.269Z" fill="#1B208B"/>
</svg>
