<svg xmlns="http://www.w3.org/2000/svg" fill="none" viewBox="-0.5 -0.5 48 48" id="Java--Streamline-Svg-Logos.svg" height="48" width="48"><desc>Java Streamline Icon: https://streamlinehq.com</desc><path fill="#5382A1" d="M17.46054895833333 36.08003958333334s-1.7586322916666666 1.0227395833333333 1.2515708333333333 1.3688260416666667c3.6468083333333334 0.41599895833333334 5.5106520833333335 0.3563677083333333 9.529445833333334 -0.4042489583333333 0 0 1.0565697916666668 0.6625041666666667 2.5321739583333334 1.2362958333333331 -9.009067708333331 3.8611479166666665 -20.389334374999997 -0.22364166666666666 -13.313190625 -2.2008729166666665Z" stroke-width="1"></path><path fill="#5382A1" d="M16.35972083333333 31.041590624999998s-1.9724822916666667 1.4600843749999999 1.0399729166666667 1.7716552083333332c3.8956145833333333 0.4018989583333333 6.972107291666666 0.43474999999999997 12.295542708333333 -0.590290625 0 0 0.7363333333333333 0.7464677083333333 1.8941 1.1546822916666666 -10.892494791666666 3.18513125 -23.024810416666668 0.25115624999999997 -15.229615625 -2.3360468749999996Z" stroke-width="1"></path><path fill="#E76F00" d="M25.64031145833333 22.494493749999997c2.219819791666666 2.555722916666667 -0.583240625 4.855589583333333 -0.583240625 4.855589583333333s5.636523958333333 -2.909789583333333 3.0479010416666665 -6.553464583333333c-2.4176604166666666 -3.398002083333333 -4.2717125 -5.08628125 5.765333333333333 -10.907427083333333 0 0 -15.754840625000002 3.9348302083333335 -8.229993749999998 12.605302083333333Z" stroke-width="1"></path><path fill="#5382A1" d="M37.555496875 39.806894791666664s1.3014104166666665 1.072334375 -1.4333041666666666 1.9019333333333333c-5.200158333333333 1.5753322916666666 -21.643646874999998 2.0510114583333334 -26.211557291666665 0.06276458333333333 -1.6420625 -0.7143510416666666 1.4372208333333332 -1.7057083333333332 2.4058614583333333 -1.9136833333333332 1.01020625 -0.21908854166666666 1.5874739583333333 -0.17825729166666665 1.5874739583333333 -0.17825729166666665 -1.826096875 -1.2864291666666667 -11.803340104166667 2.5259562499999997 -5.067921875 3.6177760416666667 18.36848125 2.978820833333333 33.483974999999994 -1.3413604166666666 28.719447916666667 -3.490533333333333Z" stroke-width="1"></path><path fill="#5382A1" d="M18.306353125 25.82091875s-8.364188541666666 1.9866802083333333 -2.9619791666666666 2.7080812499999998c2.28096875 0.30540208333333335 6.828071875 0.236321875 11.063604166666666 -0.11857708333333333 3.461452083333333 -0.2919875 6.9372 -0.912828125 6.9372 -0.912828125s-1.2205312499999998 0.522728125 -2.1035927083333337 1.1256989583333334c-8.493683333333333 2.2338218750000003 -24.90197083333333 1.1946322916666667 -20.178226041666665 -1.0903510416666666 3.994853125 -1.9310635416666666 7.24299375 -1.7120239583333334 7.24299375 -1.7120239583333334Z" stroke-width="1"></path><path fill="#5382A1" d="M33.310515625 34.20787291666666c8.634242708333332 -4.486688541666667 4.642131249999999 -8.798351041666667 1.855667708333333 -8.217460416666666 -0.68296875 0.14212604166666667 -0.9874895833333333 0.2653052083333333 -0.9874895833333333 0.2653052083333333s0.25355520833333334 -0.39719895833333335 0.7378020833333333 -0.5690916666666667c5.5125125 -1.9380156249999998 9.751961458333334 5.715934375 -1.7794885416666666 8.747336458333333 0 0 0.13355833333333333 -0.11931145833333333 0.17350833333333332 -0.22608958333333332Z" stroke-width="1"></path><path fill="#E76F00" d="M28.104873958333332 0.4895833333333333s4.781809374999999 4.783376041666667 -4.535304166666666 12.138876041666666c-7.471335416666666 5.900409375 -1.7037010416666667 9.264630208333333 -0.003084375 13.108397916666666 -4.361159375 -3.9348302083333335 -7.561663541666666 -7.398632291666666 -5.414497916666667 -10.622489583333332C21.303484375 10.382104166666666 30.03422395833333 8.087720833333334 28.104873958333332 0.4895833333333333Z" stroke-width="1"></path><path fill="#5382A1" d="M19.154703124999997 46.365744791666664c8.287764583333333 0.5305124999999999 21.01463020833333 -0.2943864583333333 21.31601770833333 -4.2158999999999995 0 0 -0.5793729166666667 1.4866197916666668 -6.849417708333333 2.66725 -7.07379375 1.3311770833333332 -15.798315625 1.1757833333333334 -20.97291770833333 0.3226354166666667 0 0 1.0593114583333332 0.8766968749999999 6.5063177083333334 1.2260145833333334Z" stroke-width="1"></path></svg>