<svg xmlns="http://www.w3.org/2000/svg" fill="none" viewBox="-0.5 -0.5 48 48" id="Openapi-Icon--Streamline-Svg-Logos.svg" height="48" width="48"><desc>Openapi Icon Streamline Icon: https://streamlinehq.com</desc><path fill="#93D500" d="M12.650980208333332 26.951954166666667H0.5075118750000001c0.00205625 0.05914166666666667 0.003696354166666667 0.11872395833333332 0.006986354166666666 0.177865625 0.004930104166666667 0.11421979166666667 0.013145312499999999 0.22804791666666666 0.020131666666666666 0.34226770833333336 0.0032851041666666666 0.04886041666666666 0.005341354166666666 0.09776979166666666 0.009037708333333333 0.14623854166666667 0.009448958333333334 0.13233437499999998 0.020954166666666666 0.26378749999999995 0.03286572916666666 0.395240625 0.00287875 0.03001145833333333 0.005341354166666666 0.05958229166666667 0.008220104166666665 0.08832083333333333 0.0139678125 0.1462875 0.029991875 0.292575 0.04724479166666667 0.4375895833333333 0.0008225 0.014393749999999999 0.0024675 0.028346875 0.004518854166666667 0.0423 0.018902812499999998 0.15696041666666666 0.039034479166666664 0.3139208333333333 0.06204 0.47 0 0.0016645833333333332 0.00041125 0.0041125 0.00123375 0.005777083333333333 0.13927666666666666 0.9679552083333334 0.34840218749999996 1.9269020833333332 0.6273667708333334 2.86935 0.00123375 0.0041125 0.0028738541666666665 0.007833333333333333 0.003696354166666667 0.011945833333333334 0.04355333333333333 0.14829479166666668 0.08956437499999999 0.29580625 0.13681406249999997 0.4424854166666667 0.0028738541666666665 0.008616666666666667 0.005752604166666666 0.017233333333333333 0.008215208333333333 0.025849999999999998 0.0024675 0.008665625 0.005341354166666666 0.017282291666666665 0.008220104166666665 0.025898958333333333 0.04313718749999999 0.13272604166666666 0.088330625 0.26501145833333334 0.13352406249999998 0.3976885416666667 0.011916458333333333 0.03329166666666667 0.023010416666666665 0.066975 0.03533322916666667 0.10026666666666667 0.04067458333333333 0.11461145833333333 0.08217166666666666 0.22927187499999999 0.12489760416666666 0.3438833333333333 0.019720416666666667 0.05174895833333333 0.039440833333333335 0.10310625 0.058754895833333334 0.15529583333333333 0.03697333333333334 0.09493020833333332 0.0735403125 0.18897916666666667 0.11092979166666667 0.28390937499999996 0.028346875 0.0710875 0.05792749999999999 0.14212604166666667 0.087508125 0.21321354166666664 0.030403125 0.07397604166666667 0.061628749999999996 0.14751145833333335 0.09285437499999999 0.22187916666666666 0.03861833333333334 0.09037708333333333 0.07888166666666667 0.1803625 0.11873375 0.2703479166666667 0.02382802083333333 0.05380520833333333 0.048067291666666664 0.10721875 0.07190020833333333 0.16063229166666665 0.04930104166666666 0.10805104166666667 0.10024708333333333 0.21610208333333333 0.15119312499999998 0.32332083333333334 0.016841666666666665 0.034515624999999994 0.03286572916666666 0.06903124999999999 0.05012354166666667 0.103546875 0.059572499999999994 0.12366875 0.12037874999999999 0.24611354166666669 0.18200260416666666 0.36772604166666667 0.010271458333333332 0.018897916666666667 0.0193140625 0.037355208333333334 0.02876302083333333 0.056253125 0.06943270833333333 0.13478229166666666 0.14009916666666666 0.269515625 0.21281697916666667 0.4030739583333333 0.00329 0.005728125 0.006575104166666666 0.011505208333333333 0.009448958333333334 0.018065625000000002 0.0152015625 0.02790625 0.032048125000000004 0.0546375 0.0472496875 0.08215208333333333L13.371206249999998 29.686570833333334l0.038236458333333334 -0.023010416666666665c-0.4092427083333333 -0.8624010416666666 -0.6639729166666667 -1.779390625 -0.7584624999999999 -2.7116062499999996Z" stroke-width="1"></path><path fill="#4D5A31" d="m15.635725 32.5269375 -0.029179166666666666 0.029179166666666666 -8.553510416666667 8.553853124999998c0.043964583333333335 0.041125 0.08753749999999999 0.08259270833333332 0.13272604166666666 0.12244479166666665 0.07970416666666666 0.07231145833333333 0.16107291666666668 0.14423124999999998 0.24200104166666667 0.214878125 0.04190833333333333 0.03740416666666666 0.082984375 0.07436770833333334 0.12489270833333332 0.11054791666666666 0.0969375 0.08376770833333333 0.19475625 0.165528125 0.292134375 0.24728854166666667 0.026682291666666667 0.022227083333333335 0.052581249999999996 0.043964583333333335 0.078871875 0.06575104166666666 0.10966666666666666 0.09081770833333333 0.22143854166666666 0.17997083333333333 0.3336020833333333 0.2686833333333333 0.014393749999999999 0.011113541666666667 0.028738541666666666 0.022618749999999996 0.04313229166666666 0.03412395833333333 0.12122083333333332 0.095321875 0.24361666666666665 0.188146875 0.36728541666666664 0.281853125 0.005336458333333333 0.0032802083333333333 0.009889583333333332 0.006560416666666667 0.014002083333333333 0.010232291666666666 0.5151885416666666 0.3850083333333333 1.049275 0.7457333333333334 1.6002520833333334 1.0817833333333333 0.018897916666666667 0.011896875 0.037795833333333334 0.023010416666666665 0.05708541666666666 0.034907291666666666 0.10477083333333333 0.06286249999999999 0.20954166666666665 0.12494166666666666 0.3151447916666667 0.18613958333333333 0.064478125 0.03696354166666666 0.12900520833333334 0.07353541666666666 0.1934833333333333 0.11010729166666666 0.06080625 0.035347916666666666 0.1216125 0.06903124999999999 0.18325104166666667 0.10310625 0.11093958333333333 0.06080625 0.22266249999999999 0.12122083333333332 0.334434375 0.1803625 0.015226041666666666 0.008225 0.030794791666666665 0.01645 0.046412499999999995 0.024675 0.3110322916666666 0.16268854166666666 0.6274010416666667 0.31387187499999997 0.9462177083333333 0.45932708333333333l0.303590625 -0.7370677083333333 4.3020177083333335 -10.4475125 0.016009375 -0.038628125c-0.47 -0.25140104166666666 -0.9202697916666666 -0.5492635416666666 -1.3438572916666667 -0.8960354166666666Z" stroke-width="1"></path><path fill="#6BA43A" d="M14.744781249999999 31.67476875c-0.09243333333333333 -0.10271458333333332 -0.1803625 -0.20787708333333332 -0.2666270833333333 -0.31426354166666665 -0.07642395833333332 -0.09453854166666666 -0.15035104166666666 -0.18986041666666664 -0.22187916666666666 -0.28640625 -0.08176041666666667 -0.11089062499999999 -0.16185625 -0.22227083333333333 -0.23744791666666665 -0.33605 -0.07642395833333332 -0.11421979166666667 -0.15118333333333334 -0.22927187499999999 -0.22187916666666666 -0.34633125L3.4127385416666667 36.64727083333333c0.15941322916666667 0.26501145833333334 0.32580302083333335 0.523021875 0.4954877083333333 0.7781927083333333 0.005752604166666666 0.008616666666666667 0.0110890625 0.018065625000000002 0.016841666666666665 0.026682291666666667 0.00205625 0.0032802083333333333 0.0041076041666666665 0.00616875 0.0061638541666666664 0.009448958333333334 0.005752604166666666 0.008225 0.010682708333333332 0.017282291666666665 0.0164353125 0.025898958333333333 0.00041125 0.0008322916666666666 0.00123375 0.0016156249999999999 0.0016401041666666667 0.002447916666666667 0.013561458333333332 0.0205625 0.027529270833333334 0.04029270833333333 0.04149708333333333 0.06080625 0.0008225 0.0012239583333333334 0.001645 0.002447916666666667 0.0024675 0.0037208333333333334 0.00041125 0.0003916666666666667 0.0008225 0.0012239583333333334 0.00123375 0.0016156249999999999 0.1803625 0.26667604166666664 0.3656551041666667 0.5291906249999999 0.5567003125 0.7847531249999999 0.0041076041666666665 0.005336458333333333 0.008626458333333333 0.011064583333333333 0.012734062499999999 0.016401041666666668 0.0041076041666666665 0.005336458333333333 0.008220104166666665 0.010672916666666666 0.012327708333333333 0.016058333333333334 0.08298927083333332 0.11010729166666666 0.1663946875 0.21977395833333332 0.25226270833333336 0.3286572916666667 0.0110890625 0.014393749999999999 0.022183020833333334 0.028346875 0.03409947916666667 0.0423 0.08793895833333333 0.11260416666666667 0.17748375 0.22354374999999999 0.268693125 0.33365104166666665 0.02134583333333333 0.025849999999999998 0.04357291666666666 0.052140624999999996 0.06491875 0.07843125000000001 0.08215208333333333 0.09821041666666666 0.164353125 0.19598020833333332 0.24816979166666667 0.29296666666666665 0.03573958333333333 0.04146770833333333 0.07309479166666666 0.082984375 0.109275 0.12406041666666667 0.07147916666666666 0.08136874999999999 0.14212604166666667 0.162296875 0.21526979166666665 0.24239270833333332 0.03985208333333333 0.043964583333333335 0.08136874999999999 0.08832083333333333 0.122053125 0.13228541666666666 0.018457291666666664 0.020170833333333332 0.03652291666666666 0.03985208333333333 0.05542083333333333 0.06002291666666666 0.05341354166666667 0.05747708333333333 0.10643541666666667 0.115003125 0.160240625 0.1721375 0.021394791666666666 0.02256979166666667 0.043964583333333335 0.044747916666666665 0.06575104166666666 0.06736666666666666 0.09448958333333334 0.09860208333333333 0.18981145833333332 0.19720416666666665 0.28718958333333333 0.294190625l8.566190624999999 -8.566239583333333c-0.09816145833333334 -0.09821041666666666 -0.190203125 -0.19926041666666663 -0.2810208333333333 -0.3007510416666666Z" stroke-width="1"></path><path fill="#4D5A31" d="M26.0996875 32.522384375c-0.09409791666666667 0.07603229166666665 -0.18941979166666667 0.15039999999999998 -0.2863572916666666 0.22187916666666666l0.02134583333333333 0.03573958333333333L32.080437499999995 43.1477625c0.2892458333333333 -0.18897916666666667 0.5751625 -0.38373541666666666 0.8545677083333333 -0.5883322916666667 0.6043416666666667 -0.445765625 1.1893937499999998 -0.9289354166666666 1.7530999999999999 -1.44906875L26.133811458333334 32.55606770833333l-0.03412395833333333 -0.03368333333333333Z" stroke-width="1"></path><path fill="#93D500" d="m31.17245625 43.232949999999995 -0.21198958333333331 -0.35166770833333333 -5.829958333333333 -9.67759375c-0.117940625 0.0710875 -0.23872083333333333 0.13517395833333334 -0.359109375 0.20009270833333334 -0.1216125 0.06531041666666666 -0.24405729166666665 0.12655729166666665 -0.36811770833333335 0.18530729166666665 -1.1199708333333331 0.5311979166666666 -2.332375 0.8023781249999999 -3.54644375 0.8023781249999999 -0.7954260416666666 0 -1.5904114583333333 -0.11505208333333332 -2.35910625 -0.344275 -0.13106145833333332 -0.03906875 -0.2588427083333333 -0.09042604166666666 -0.38823958333333336 -0.136446875 -0.12944583333333334 -0.04558020833333333 -0.26050729166666664 -0.085040625 -0.3878479166666667 -0.137621875l-4.299129166666667 10.440511458333333 -0.168465625 0.40919374999999997 -0.14418229166666666 0.3504927083333333 -0.0008322916666666666 0.0016156249999999999c0.011064583333333333 0.004553125 0.02256979166666667 0.008225 0.03368333333333333 0.012729166666666666 0.011896875 0.004944791666666666 0.023402083333333334 0.008665625 0.035347916666666666 0.013561458333333332h0.0003916666666666667c0.0003916666666666667 0 0.0008322916666666666 0.000440625 0.0008322916666666666 0.000440625 0.0028885416666666664 0.0012239583333333334 0.005728125 0.00205625 0.008225 0.0032802083333333333 0.10144166666666667 0.04146770833333333 0.20376458333333333 0.07720729166666666 0.305646875 0.11710833333333333 0.12778125 0.049692708333333335 0.2555625 0.10021770833333332 0.38373541666666666 0.14707083333333332 0.06531041666666666 0.023842708333333334 0.13022916666666667 0.05174895833333333 0.19558854166666667 0.074759375h0.0003916666666666667c1.3467458333333333 0.4757770833333333 2.7403447916666663 0.808546875 4.1573947916666665 0.995078125 0.055469791666666664 0.006560416666666667 0.11049895833333334 0.014393749999999999 0.16596875 0.022178125 0.05791770833333333 0.006609375 0.11627604166666666 0.0123375 0.17419375 0.018897916666666667 0.10932395833333333 0.0123375 0.21815833333333332 0.025066666666666668 0.3278739583333333 0.03573958333333333 0.027122916666666663 0.00205625 0.054245833333333326 0.004553125 0.08136874999999999 0.007001041666666667 0.13434166666666664 0.012729166666666666 0.2686833333333333 0.024234375 0.4021927083333333 0.03368333333333333 0.045629166666666665 0.0032802083333333333 0.09165 0.005336458333333333 0.13683854166666667 0.008616666666666667 0.11789166666666666 0.007833333333333333 0.235 0.015226041666666666 0.3525 0.0205625 0.07187083333333334 0.0041125 0.143790625 0.00616875 0.21610208333333333 0.008616666666666667 0.09326562499999999 0.0032802083333333333 0.18609062499999998 0.007001041666666667 0.2801885416666667 0.009889583333333332 0.13434166666666664 0.0032802083333333333 0.26995625 0.004504166666666667 0.40508125 0.004895833333333334 0.032067708333333333 0 0.06369479166666667 0.0008322916666666666 0.095321875 0.0012239583333333334 1.1319166666666665 0 2.2633927083333334 -0.09404895833333332 3.38253125 -0.28180416666666663 0.018897916666666667 -0.0028885416666666664 0.03740416666666666 -0.00616875 0.05669375 -0.008665625 0.11833229166666666 -0.020513541666666666 0.23666458333333332 -0.04269166666666666 0.354996875 -0.064478125 0.06736666666666666 -0.013169791666666666 0.13517395833333334 -0.025898958333333333 0.20170833333333332 -0.039019791666666664 0.06903124999999999 -0.014393749999999999 0.13845416666666666 -0.028787499999999997 0.20748541666666667 -0.04357291666666666 0.11544375 -0.024234375 0.23049583333333332 -0.04930104166666666 0.3459395833333333 -0.07598333333333333 0.0205625 -0.004553125 0.04151666666666667 -0.008665625 0.06247083333333333 -0.014393749999999999 1.7013020833333332 -0.3964645833333333 3.3442947916666665 -1.0103041666666668 4.887853125 -1.8225229166666665l0.0003916666666666667 -0.000440625c0.10109895833333332 -0.05336458333333333 0.19970104166666666 -0.11417083333333332 0.300359375 -0.16885729166666666 0.11994791666666665 -0.06570208333333334 0.23911249999999998 -0.13350937499999999 0.3582770833333333 -0.20170833333333332 0.08254375 -0.04724479166666667 0.16596875 -0.09081770833333333 0.24772916666666667 -0.139678125l0.0003916666666666667 -0.000440625c0.0008322916666666666 -0.0003916666666666667 0.0016645833333333332 -0.0012239583333333334 0.002496875 -0.0016156249999999999l0.0003916666666666667 0c0.0012239583333333334 -0.0008322916666666666 0.002447916666666667 -0.0012239583333333334 0.0037208333333333334 -0.00205625 0.0007833333333333334 -0.0003916666666666667 0.0012239583333333334 -0.0008322916666666666 0.0016156249999999999 -0.0012239583333333334 0.0008322916666666666 -0.000440625 0.0016645833333333332 -0.0008322916666666666 0.002447916666666667 -0.0012239583333333334 0.0012729166666666666 -0.0008322916666666666 0.002496875 -0.0012729166666666666 0.0037208333333333334 -0.00205625 0.004504166666666667 -0.0028885416666666664 0.009057291666666667 -0.005336458333333333 0.013561458333333332 -0.008225 0.026682291666666667 -0.016009375 0.05341354166666667 -0.032067708333333333 0.08009583333333332 -0.04807708333333333l-0.21032499999999998 -0.35127604166666665Z" stroke-width="1"></path><path fill="#93D500" d="M15.640571875 19.738873958333333c0.09448958333333334 -0.07642395833333332 0.18981145833333332 -0.15039999999999998 0.2863572916666666 -0.22187916666666666l-0.02134583333333333 -0.03573958333333333 -6.2453208333333325 -10.367808333333333c-0.290078125 0.18941979166666667 -0.5768270833333333 0.3845677083333333 -0.8566239583333333 0.589996875 -0.60395 0.44454166666666667 -1.1886104166666667 0.9272708333333333 -1.75104375 1.4470125L15.606888541666667 19.704749999999997l0.03368333333333333 0.03412395833333333Z" stroke-width="1"></path><path fill="#4D5A31" d="M6.4592197916666665 11.719890625c-0.097378125 0.097378125 -0.18937083333333332 0.19803645833333333 -0.28430104166666664 0.29663854166666664 -0.09488125 0.09860208333333333 -0.19147604166666665 0.19676354166666665 -0.28430104166666664 0.2970302083333333 -0.6319052083333333 0.6840458333333334 -1.2095449999999999 1.4005999999999998 -1.7305057291666666 2.1446197916666665 -0.025061770833333333 0.03495625 -0.05012354166666667 0.07147916666666666 -0.0747740625 0.10726770833333332 -0.05875 0.08543229166666666 -0.11668239583333333 0.17091354166666667 -0.17378739583333333 0.25673749999999995 -0.059572499999999994 0.089153125 -0.11873375 0.17957916666666668 -0.1762548958333333 0.269515625 -0.021776666666666666 0.0329 -0.04313718749999999 0.06619166666666666 -0.06409135416666667 0.09904270833333334 -1.9675619791666663 3.086725 -3.021801354166666 6.587539583333332 -3.1635455208333334 10.117973958333332 -0.005341354166666666 0.13683854166666667 -0.008215208333333333 0.27406874999999997 -0.0110890625 0.41085833333333327 -0.00287875 0.13683854166666667 -0.006986354166666666 0.2740197916666666 -0.006986354166666666 0.41085833333333327h12.11513125c0 -0.13723020833333333 0.012729166666666666 -0.27362812499999994 0.019730208333333332 -0.41085833333333327 0.007001041666666667 -0.13723020833333333 0.009008333333333333 -0.27446041666666665 0.02256979166666667 -0.41085833333333327 0.15656874999999998 -1.5776333333333332 0.7654145833333332 -3.1179114583333334 1.8270760416666667 -4.412125 0.08626458333333333 -0.10516249999999999 0.18364270833333332 -0.20376458333333333 0.27607604166666666 -0.30525520833333336 0.09204166666666666 -0.10144166666666667 0.17747395833333332 -0.20704479166666664 0.27568437500000004 -0.30481458333333333L6.4592197916666665 11.719890625Z" stroke-width="1"></path><path fill="#4D5A31" d="M31.456414583333334 8.712771875c-0.01645 -0.01028125 -0.033732291666666664 -0.020121874999999997 -0.050133333333333335 -0.03001145833333333 -0.10643541666666667 -0.06531041666666666 -0.21404583333333332 -0.12817291666666666 -0.3217052083333333 -0.19103541666666665 -0.06247083333333333 -0.036131250000000004 -0.12489270833333332 -0.0710875 -0.18775520833333334 -0.10682708333333334 -0.063303125 -0.03529895833333333 -0.12572499999999998 -0.070646875 -0.18941979166666667 -0.10516249999999999 -0.109275 -0.05997395833333333 -0.21899062499999997 -0.11916458333333334 -0.32909791666666666 -0.17747395833333332 -0.017233333333333333 -0.008665625 -0.034074999999999994 -0.018114583333333333 -0.05174895833333333 -0.027122916666666663 -0.7103854166666667 -0.37139791666666666 -1.4400114583333332 -0.6984395833333333 -2.1849125 -0.9823489583333332 -0.018897916666666667 -0.0077843750000000005 -0.038628125 -0.015177083333333332 -0.05791770833333333 -0.022178125 -0.162296875 -0.06080625 -0.32498541666666664 -0.12122083333333332 -0.48889791666666665 -0.17791458333333332 -1.3233437499999998 -0.462215625 -2.6918760416666667 -0.7863687500000001 -4.082194791666667 -0.9687874999999999 -0.05669375 -0.0077843750000000005 -0.113828125 -0.015617708333333332 -0.170521875 -0.023010416666666665 -0.05708541666666666 -0.0069520833333333336 -0.113828125 -0.012729166666666666 -0.170521875 -0.018897916666666667 -0.10966666666666666 -0.012729166666666666 -0.21894166666666665 -0.025066666666666668 -0.32904895833333336 -0.03573958333333333 -0.030403125 -0.0028885416666666664 -0.06124687499999999 -0.004895833333333334 -0.09204166666666666 -0.008225 -0.13022916666666667 -0.011896875 -0.26129062499999994 -0.023402083333333334 -0.39156874999999997 -0.03285104166666667 -0.050525 -0.0037208333333333334 -0.10188229166666667 -0.006560416666666667 -0.15240729166666667 -0.009448958333333334 -0.11177187499999999 -0.007392708333333334 -0.22471875 -0.015177083333333332 -0.336490625 -0.020121874999999997 -0.05997395833333333 -0.0032802083333333333 -0.11916458333333334 -0.004944791666666666 -0.17830625 -0.007001041666666667l-0.0003916666666666667 12.097065624999999v0.04724479166666667c0.6232395833333333 0.06452708333333333 1.2407510416666667 0.19720416666666665 1.83975625 0.40057708333333336l8.937637500000001 -8.937637500000001c-0.3315458333333333 -0.23005520833333332 -0.6672041666666666 -0.45355 -1.0123114583333332 -0.6630916666666666Z" stroke-width="1"></path><path fill="#6BA43A" d="M20.459491666666665 5.758919791666666c-0.13683854166666667 0.0028885416666666664 -0.2740197916666666 0.0032802083333333333 -0.41085833333333327 0.008616666666666667 -0.857015625 0.034515624999999994 -1.712415625 0.12200416666666666 -2.5608145833333333 0.26417916666666663 -0.01850625 0.0032802083333333333 -0.03696354166666666 0.00616875 -0.05586145833333333 0.009448958333333334 -0.11916458333333334 0.0205625 -0.23710520833333332 0.0423 -0.35538854166666667 0.064478125 -0.066975 0.012778125 -0.13434166666666664 0.025066666666666668 -0.20131666666666667 0.038628125 -0.06986354166666667 0.014002083333333333 -0.1392864583333333 0.028346875 -0.208709375 0.04357291666666666 -0.11505208333333332 0.023842708333333334 -0.23010416666666664 0.04886041666666666 -0.34515624999999994 0.07559166666666667 -0.020954166666666666 0.004504166666666667 -0.04146770833333333 0.009448958333333334 -0.06281354166666667 0.013953125 -1.7013510416666666 0.3969052083333333 -3.3451760416666665 1.0111364583333333 -4.88829375 1.8233552083333333h-0.000440625c-0.10065833333333334 0.05341354166666667 -0.19881979166666666 0.113828125 -0.2990864583333333 0.16885729166666666 -0.11994791666666665 0.06575104166666666 -0.23911249999999998 0.13355833333333333 -0.3582770833333333 0.20175729166666667 -0.08832083333333333 0.050916666666666666 -0.17830625 0.09776979166666666 -0.2662354166666666 0.15035104166666666 -0.0007833333333333334 0.0003916666666666667 -0.00205625 0.0012239583333333334 -0.002839583333333333 0.0016645833333333332h-0.000440625c-0.00616875 0.003671875 -0.012288541666666666 0.0069520833333333336 -0.018457291666666664 0.010672916666666666 -0.023010416666666665 0.013953125 -0.046853124999999995 0.025458333333333333 -0.06986354166666667 0.03941145833333333l0.0012239583333333334 0.00205625 0.21198958333333331 0.3521083333333333 6.041556249999999 10.029653125c0.117940625 -0.0710875 0.23872083333333333 -0.135565625 0.359109375 -0.20009270833333334 0.121171875 -0.06531041666666666 0.24400833333333333 -0.12650833333333333 0.3676770833333333 -0.18525833333333333 0.8627927083333333 -0.41085833333333327 1.77983125 -0.6655885416666666 2.712046875 -0.7600781249999999 0.13678958333333333 -0.013953125 0.27362812499999994 -0.025458333333333333 0.41085833333333327 -0.032459375 0.13678958333333333 -0.007001041666666667 0.27357916666666665 -0.013953125 0.410809375 -0.013953125l0.000440625 -12.114739583333334c-0.13723020833333333 0 -0.27406874999999997 0.005728125 -0.41085833333333327 0.008225Z" stroke-width="1"></path><path fill="#4D5A31" d="M41.2254625 25.128745833333333c-0.005777083333333333 -0.10888333333333332 -0.0123375 -0.21732604166666666 -0.019730208333333332 -0.32660104166666665 -0.0032802083333333333 -0.054245833333333326 -0.00616875 -0.10805104166666667 -0.010672916666666666 -0.16312916666666666 -0.009057291666666667 -0.12778125 -0.019730208333333332 -0.2559541666666667 -0.03162708333333333 -0.38373541666666666 -0.002496875 -0.03329166666666667 -0.005777083333333333 -0.06614270833333333 -0.008665625 -0.09943437499999999 -0.013953125 -0.14295833333333333 -0.029179166666666666 -0.28591666666666665 -0.04558020833333333 -0.4284833333333333 -0.0016645833333333332 -0.011505208333333333 -0.0028885416666666664 -0.023010416666666665 -0.0041125 -0.034515624999999994 -0.0008322916666666666 -0.005336458333333333 -0.0012239583333333334 -0.011113541666666667 -0.00205625 -0.01645 -0.018897916666666667 -0.154071875 -0.039460416666666664 -0.30814375 -0.061197916666666664 -0.461775 -0.000440625 -0.004553125 -0.0008322916666666666 -0.01028125 -0.00205625 -0.014393749999999999 -0.1392864583333333 -0.9658989583333334 -0.34799583333333334 -1.9231812499999998 -0.6261770833333332 -2.8644541666666665 -0.00205625 -0.006560416666666667 -0.003671875 -0.0123375 -0.005728125 -0.018065625000000002 -0.043964583333333335 -0.1462875 -0.08876145833333332 -0.29169375 -0.13478229166666666 -0.43675729166666666 -0.006119791666666667 -0.018897916666666667 -0.012729166666666666 -0.0381875 -0.018457291666666664 -0.05747708333333333 -0.04313229166666666 -0.13106145833333332 -0.08670520833333334 -0.26133958333333335 -0.13189374999999998 -0.39196041666666664 -0.012729166666666666 -0.034907291666666666 -0.025066666666666668 -0.07025520833333332 -0.03740416666666666 -0.10599479166666666 -0.03985208333333333 -0.11299583333333334 -0.080928125 -0.22555104166666665 -0.12283645833333333 -0.3381552083333333 -0.020121874999999997 -0.05380520833333333 -0.040684374999999995 -0.10721875 -0.06163854166666667 -0.16063229166666665 -0.03529895833333333 -0.09326562499999999 -0.07187083333333334 -0.18653124999999998 -0.108834375 -0.2785729166666666 -0.029619791666666666 -0.07392708333333332 -0.059190625 -0.14663020833333332 -0.08959375 -0.21938229166666665 -0.029570833333333334 -0.07231145833333333 -0.05997395833333333 -0.143790625 -0.09037708333333333 -0.21610208333333333 -0.03985208333333333 -0.09204166666666666 -0.08009583333333332 -0.184034375 -0.12078020833333333 -0.27568437500000004 -0.023010416666666665 -0.05135729166666666 -0.04602083333333333 -0.103546875 -0.06986354166666667 -0.15529583333333333 -0.050133333333333335 -0.109275 -0.101490625 -0.21855 -0.15323958333333332 -0.3274333333333333 -0.016009375 -0.0329 -0.03162708333333333 -0.06658333333333334 -0.04763645833333333 -0.09943437499999999 -0.06041458333333333 -0.12450104166666667 -0.1216125 -0.24900208333333335 -0.18408333333333332 -0.3722302083333333 -0.009057291666666667 -0.016841666666666665 -0.017673958333333333 -0.03412395833333333 -0.026682291666666667 -0.05135729166666666 -0.06986354166666667 -0.13600625 -0.14134270833333334 -0.27240416666666667 -0.21409479166666667 -0.4067458333333333 -0.002839583333333333 -0.004504166666666667 -0.004895833333333334 -0.009840624999999999 -0.0077843750000000005 -0.014393749999999999 -0.35294062499999995 -0.6491385416666667 -0.7403479166666667 -1.2768822916666664 -1.15943125 -1.8808322916666664L28.687967708333332 23.470135416666665c0.20337291666666665 0.5994458333333332 0.33565833333333334 1.216565625 0.40013645833333333 1.8394135416666666h12.144751041666666c-0.0028885416666666664 -0.06124687499999999 -0.004553125 -0.12122083333333332 -0.007392708333333334 -0.180803125Z" stroke-width="1"></path><path fill="#6BA43A" d="M29.135055208333334 26.130482291666667c0 0.13723020833333333 -0.012729166666666666 0.27362812499999994 -0.019730208333333332 0.41085833333333327 -0.006560416666666667 0.13723020833333333 -0.009008333333333333 0.27446041666666665 -0.02256979166666667 0.41085833333333327 -0.15656874999999998 1.5776333333333332 -0.7654145833333332 3.118352083333333 -1.8266354166666665 4.412516666666667 -0.08631354166666667 0.10516249999999999 -0.18369166666666664 0.20376458333333333 -0.27612499999999995 0.30525520833333336 -0.09204166666666666 0.101490625 -0.17747395833333332 0.20704479166666664 -0.27568437500000004 0.3048635416666667l8.56663125 8.566190624999999c0.097378125 -0.097378125 0.18897916666666667 -0.19803645833333333 0.28390937499999996 -0.2970302083333333 0.09488125 -0.09899374999999999 0.19147604166666665 -0.1968125 0.28390937499999996 -0.2970302083333333 0.6339125 -0.6865427083333333 1.2132364583333333 -1.4047125 1.7354260416666667 -2.1512291666666665 0.020954166666666666 -0.029570833333333334 0.040684374999999995 -0.05875 0.06080625 -0.08792916666666667 0.06364583333333333 -0.09160104166666666 0.12572499999999998 -0.184034375 0.188146875 -0.27646770833333334 0.0546375 -0.08259270833333332 0.109275 -0.16518541666666664 0.162296875 -0.24861041666666667 0.026290624999999998 -0.03985208333333333 0.052581249999999996 -0.08131979166666667 0.07803958333333333 -0.121171875 1.9646979166666665 -3.0850604166666664 3.016078125 -6.5822031249999995 3.1574208333333336 -10.109797916666666 0.005336458333333333 -0.13678958333333333 0.008176041666666667 -0.2740197916666666 0.011064583333333333 -0.41085833333333327 0.0028885416666666664 -0.13678958333333333 0.007001041666666667 -0.27357916666666665 0.007001041666666667 -0.410809375H29.135055208333334v0.0003916666666666667Z" stroke-width="1"></path><path fill="#424143" d="M44.84837916666666 2.1519831249999997c-2.2165395833333332 -2.21653321875 -5.810228124999999 -2.21653321875 -8.026376041666667 0 -1.7682770833333332 1.7678854166666667 -2.121609375 4.410881458333334 -1.0686135416666667 6.533323124999999L23.390529166666667 21.048607291666666c-2.1224416666666666 -1.0526041666666666 -4.765457291666666 -0.6996635416666667 -6.533734375 1.068221875 -2.2165395833333332 2.2165395833333332 -2.216147916666667 5.810228124999999 0 8.026767708333333 2.21693125 2.2165395833333332 5.810619791666666 2.2157072916666665 8.027159375 -0.000440625 1.7678854166666667 -1.7678854166666667 2.1208260416666667 -4.4108520833333325 1.06778125 -6.533734375l12.362909375 -12.362860416666665c2.1228333333333333 1.0526041666666666 4.765457291666666 0.6996635416666667 6.533342708333333 -1.0686135416666667 2.2165395833333332 -2.2153156249999997 2.2165395833333332 -5.809430104166667 0.0003916666666666667 -8.025964791666667Z" stroke-width="1"></path></svg>