<svg width="3528" height="349" viewBox="0 0 3528 349" fill="none" xmlns="http://www.w3.org/2000/svg">
<path d="M453 258C440.833 258 429.333 255.833 418.5 251.5C407.833 247.167 398.417 241.083 390.25 233.25C382.25 225.25 376 215.75 371.5 204.75C367 193.583 364.75 181.167 364.75 167.5C364.75 153.833 367 141.5 371.5 130.5C376 119.333 382.25 109.833 390.25 102C398.417 94 407.833 87.8333 418.5 83.5C429.167 79.1667 440.667 77 453 77C465.333 77 476.833 79.1667 487.5 83.5C498.167 87.6667 507.5 93.75 515.5 101.75C523.667 109.583 530 119.083 534.5 130.25C539.167 141.417 541.5 153.833 541.5 167.5C541.5 181.167 539.167 193.583 534.5 204.75C530 215.917 523.667 225.5 515.5 233.5C507.5 241.333 498.167 247.417 487.5 251.75C476.833 255.917 465.333 258 453 258ZM453 232.5C463.833 232.5 473.75 230 482.75 225C491.75 220 498.917 212.667 504.25 203C509.583 193.167 512.25 181.333 512.25 167.5C512.25 153.333 509.583 141.417 504.25 131.75C498.917 122.083 491.75 114.833 482.75 110C473.75 105 463.833 102.5 453 102.5C442.333 102.5 432.5 105 423.5 110C414.5 115 407.333 122.333 402 132C396.667 141.667 394 153.5 394 167.5C394 181.333 396.667 193.167 402 203C407.333 212.667 414.5 220 423.5 225C432.5 230 442.333 232.5 453 232.5ZM566.492 310V131H591.992L592.992 149.75C597.326 143.417 603.159 138.25 610.492 134.25C617.826 130.083 626.492 128 636.492 128C648.826 128 659.409 130.917 668.242 136.75C677.076 142.417 683.909 150.167 688.742 160C693.576 169.667 695.992 180.583 695.992 192.75C695.992 204.917 693.576 216 688.742 226C683.909 235.833 676.992 243.667 667.992 249.5C659.159 255.167 648.659 258 636.492 258C626.159 258 617.242 255.917 609.742 251.75C602.409 247.417 596.826 242.167 592.992 236V310H566.492ZM630.992 234.75C638.659 234.75 645.326 232.917 650.992 229.25C656.659 225.583 661.076 220.583 664.242 214.25C667.409 207.917 668.992 200.75 668.992 192.75C668.992 184.417 667.326 177.167 663.992 171C660.826 164.667 656.409 159.75 650.742 156.25C645.076 152.75 638.492 151 630.992 151C623.659 151 617.159 152.833 611.492 156.5C605.826 160 601.326 164.917 597.992 171.25C594.826 177.417 593.242 184.667 593.242 193C593.242 200.667 594.826 207.75 597.992 214.25C601.159 220.583 605.576 225.583 611.242 229.25C616.909 232.917 623.492 234.75 630.992 234.75ZM776.813 258C764.313 258 753.396 255.25 744.063 249.75C734.729 244.083 727.396 236.417 722.062 226.75C716.896 216.917 714.313 205.667 714.313 193C714.313 179.833 716.896 168.417 722.062 158.75C727.396 149.083 734.729 141.583 744.063 136.25C753.563 130.75 764.563 128 777.063 128C789.229 128 799.813 130.667 808.813 136C817.813 141.167 824.896 148.333 830.063 157.5C835.229 166.667 837.813 177.083 837.813 188.75C837.813 191.083 837.729 193.167 837.562 195C837.562 196.833 837.396 198.833 837.063 201H742.813C743.313 207.5 744.979 213.333 747.813 218.5C750.646 223.5 754.479 227.417 759.313 230.25C764.313 233.083 769.979 234.5 776.313 234.5C783.146 234.5 788.896 233 793.563 230C798.396 227 802.146 222.667 804.813 217H834.563C832.229 224.5 828.479 231.333 823.313 237.5C818.313 243.667 811.896 248.667 804.063 252.5C796.396 256.167 787.313 258 776.813 258ZM743.063 181.25H808.813C808.646 172.083 805.396 164.833 799.063 159.5C792.729 154.167 785.146 151.5 776.313 151.5C768.313 151.5 761.063 153.917 754.563 158.75C748.229 163.583 744.396 171.083 743.063 181.25ZM856.217 255V131H887.967V145.5C892.3 139.667 898.05 135.333 905.217 132.5C912.55 129.5 919.883 128 927.217 128C941.55 128 953.3 132.667 962.467 142C971.633 151.167 976.217 164.5 976.217 182V255H944.467V186.25C944.467 176.917 942.05 169.417 937.217 163.75C932.55 157.917 925.633 155 916.467 155C907.3 155 900.217 157.917 895.217 163.75C890.383 169.417 887.967 176.917 887.967 186.25V255H856.217Z" fill="#004C82"/>
<path d="M1121.14 258C1109.14 258 1098.23 255.917 1088.39 251.75C1078.56 247.417 1070.73 241.167 1064.89 233C1059.23 224.667 1056.31 214.417 1056.14 202.25H1085.89C1086.06 211.583 1089.31 219.25 1095.64 225.25C1101.98 231.083 1110.39 234 1120.89 234C1130.23 234 1137.73 231.833 1143.39 227.5C1149.06 223.167 1151.89 217.083 1151.89 209.25C1151.89 204.75 1151.14 201 1149.64 198C1148.14 194.833 1145.64 192.083 1142.14 189.75C1138.64 187.25 1133.98 184.917 1128.14 182.75C1122.31 180.417 1114.89 177.75 1105.89 174.75C1095.39 171.25 1086.81 167.25 1080.14 162.75C1073.48 158.083 1068.56 152.75 1065.39 146.75C1062.39 140.583 1060.89 133.75 1060.89 126.25C1060.89 115.583 1063.39 106.583 1068.39 99.25C1073.56 91.9167 1080.48 86.4167 1089.14 82.75C1097.98 78.9167 1107.73 77 1118.39 77C1129.23 77 1138.98 78.9167 1147.64 82.75C1156.31 86.5833 1163.31 92.25 1168.64 99.75C1173.98 107.083 1176.73 116.083 1176.89 126.75H1146.64C1146.64 119.583 1143.98 113.5 1138.64 108.5C1133.31 103.5 1126.23 101 1117.39 101C1109.89 100.833 1103.48 102.75 1098.14 106.75C1092.98 110.75 1090.39 116.583 1090.39 124.25C1090.39 129.583 1092.06 134 1095.39 137.5C1098.89 141 1103.81 144.083 1110.14 146.75C1116.48 149.417 1124.14 152.333 1133.14 155.5C1138.64 157.333 1144.23 159.5 1149.89 162C1155.73 164.5 1160.98 167.75 1165.64 171.75C1170.48 175.583 1174.39 180.417 1177.39 186.25C1180.39 191.917 1181.89 199 1181.89 207.5C1181.89 218 1179.14 227.083 1173.64 234.75C1168.31 242.25 1161.06 248 1151.89 252C1142.73 256 1132.48 258 1121.14 258ZM1261.68 258C1249.18 258 1238.26 255.25 1228.93 249.75C1219.59 244.083 1212.26 236.417 1206.93 226.75C1201.76 216.917 1199.18 205.667 1199.18 193C1199.18 179.833 1201.76 168.417 1206.93 158.75C1212.26 149.083 1219.59 141.583 1228.93 136.25C1238.43 130.75 1249.43 128 1261.93 128C1274.09 128 1284.68 130.667 1293.68 136C1302.68 141.167 1309.76 148.333 1314.93 157.5C1320.09 166.667 1322.68 177.083 1322.68 188.75C1322.68 191.083 1322.59 193.167 1322.43 195C1322.43 196.833 1322.26 198.833 1321.93 201H1227.68C1228.18 207.5 1229.84 213.333 1232.68 218.5C1235.51 223.5 1239.34 227.417 1244.18 230.25C1249.18 233.083 1254.84 234.5 1261.18 234.5C1268.01 234.5 1273.76 233 1278.43 230C1283.26 227 1287.01 222.667 1289.68 217H1319.43C1317.09 224.5 1313.34 231.333 1308.18 237.5C1303.18 243.667 1296.76 248.667 1288.93 252.5C1281.26 256.167 1272.18 258 1261.68 258ZM1227.93 181.25H1293.68C1293.51 172.083 1290.26 164.833 1283.93 159.5C1277.59 154.167 1270.01 151.5 1261.18 151.5C1253.18 151.5 1245.93 153.917 1239.43 158.75C1233.09 163.583 1229.26 171.083 1227.93 181.25ZM1343.08 255V131H1370.58L1371.08 146.5C1375.25 140.333 1380.58 135.75 1387.08 132.75C1393.58 129.583 1400.66 128 1408.33 128C1417.83 128 1426.41 130 1434.08 134C1441.91 137.833 1447.91 143.917 1452.08 152.25C1456.41 144.583 1462.25 138.667 1469.58 134.5C1477.08 130.167 1485.25 128 1494.08 128C1503.75 128 1512.33 130 1519.83 134C1527.5 137.833 1533.5 143.75 1537.83 151.75C1542.16 159.75 1544.33 169.833 1544.33 182V255H1516.33V185.75C1516.33 175.25 1513.91 167.083 1509.08 161.25C1504.41 155.417 1497.41 152.5 1488.08 152.5C1478.58 152.5 1471.16 155.667 1465.83 162C1460.5 168.167 1457.83 176.75 1457.83 187.75V255H1429.83V185.75C1429.83 175.083 1427.33 166.917 1422.33 161.25C1417.5 155.417 1410.5 152.5 1401.33 152.5C1393.16 152.5 1386.08 155.417 1380.08 161.25C1374.25 166.917 1371.33 175.75 1371.33 187.75V255H1343.08ZM1607.67 258C1600 258 1592.83 256.583 1586.17 253.75C1579.67 250.75 1574.42 246.417 1570.42 240.75C1566.58 235.083 1564.67 228.333 1564.67 220.5C1564.67 211.167 1567 203.583 1571.67 197.75C1576.33 191.917 1582.67 187.667 1590.67 185C1598.67 182.167 1607.5 180.75 1617.17 180.75H1648.17C1648.17 174.083 1647.08 168.667 1644.92 164.5C1642.75 160.167 1639.75 157 1635.92 155C1632.08 152.833 1627.58 151.75 1622.42 151.75C1615.75 151.75 1609.92 153.25 1604.92 156.25C1599.92 159.25 1596.83 164.167 1595.67 171H1567.17C1568 162 1571 154.333 1576.17 148C1581.5 141.5 1588.25 136.583 1596.42 133.25C1604.58 129.75 1613.33 128 1622.67 128C1634.67 128 1644.58 130.25 1652.42 134.75C1660.42 139.083 1666.42 145.167 1670.42 153C1674.58 160.833 1676.67 169.917 1676.67 180.25V218C1676.83 222.5 1677.92 225.75 1679.92 227.75C1682.08 229.75 1685.42 230.833 1689.92 231V255C1682.92 255 1676.92 254.25 1671.92 252.75C1666.92 251.25 1662.75 249 1659.42 246C1656.25 243 1653.67 239.083 1651.67 234.25C1647.67 240.917 1641.75 246.583 1633.92 251.25C1626.25 255.75 1617.5 258 1607.67 258ZM1614.92 235C1621.42 235 1627.08 233.5 1631.92 230.5C1636.92 227.333 1640.83 223.167 1643.67 218C1646.67 212.667 1648.17 206.833 1648.17 200.5V199.75H1619.17C1614.83 199.75 1610.67 200.333 1606.67 201.5C1602.67 202.667 1599.5 204.583 1597.17 207.25C1594.83 209.75 1593.67 213.25 1593.67 217.75C1593.67 223.75 1595.75 228.167 1599.92 231C1604.08 233.667 1609.08 235 1614.92 235ZM1708.56 255V131H1736.06L1736.56 148C1740.73 141.5 1746.48 136.583 1753.81 133.25C1761.14 129.75 1768.81 128 1776.81 128C1791.31 128 1803.06 132.583 1812.06 141.75C1821.06 150.917 1825.56 164.417 1825.56 182.25V255H1797.56V185.75C1797.56 175.25 1795.06 167 1790.06 161C1785.06 155 1777.73 152 1768.06 152C1758.39 152 1750.73 155.25 1745.06 161.75C1739.56 168.083 1736.81 176.75 1736.81 187.75V255H1708.56ZM1898.91 255C1886.24 255 1876.58 251.917 1869.91 245.75C1863.24 239.583 1859.91 229.75 1859.91 216.25V154.75H1842.16V131H1859.91V101H1888.41V131H1918.66V154.75H1888.41V216.5C1888.41 222.167 1889.74 226.083 1892.41 228.25C1895.08 230.25 1899.08 231.25 1904.41 231.25H1918.66V255H1898.91ZM1956.73 111.25C1951.56 111.25 1947.15 109.417 1943.48 105.75C1939.81 102.083 1937.98 97.6667 1937.98 92.5C1937.98 87.3333 1939.81 83 1943.48 79.5C1947.15 75.8333 1951.56 74 1956.73 74C1961.9 74 1966.31 75.8333 1969.98 79.5C1973.65 83 1975.48 87.3333 1975.48 92.5C1975.48 97.6667 1973.65 102.083 1969.98 105.75C1966.31 109.417 1961.9 111.25 1956.73 111.25ZM1942.48 255V131H1970.98V255H1942.48ZM2056.59 258C2044.43 258 2033.68 255.25 2024.34 249.75C2015.01 244.25 2007.68 236.667 2002.34 227C1997.01 217.167 1994.34 205.833 1994.34 193C1994.34 180.333 1996.93 169.167 2002.09 159.5C2007.26 149.667 2014.51 142 2023.84 136.5C2033.18 130.833 2044.09 128 2056.59 128C2071.59 128 2084.18 131.833 2094.34 139.5C2104.68 147 2111.51 157.75 2114.84 171.75H2084.84C2083.34 165.917 2080.09 161.167 2075.09 157.5C2070.09 153.833 2063.84 152 2056.34 152C2048.84 152 2042.68 153.917 2037.84 157.75C2033.01 161.417 2029.34 166.417 2026.84 172.75C2024.51 178.917 2023.34 185.667 2023.34 193C2023.34 200.667 2024.59 207.583 2027.09 213.75C2029.59 219.917 2033.26 224.833 2038.09 228.5C2043.09 232.167 2049.18 234 2056.34 234C2063.68 234 2069.76 232.333 2074.59 229C2079.59 225.5 2083.01 220.583 2084.84 214.25H2114.84C2112.84 223.25 2109.09 231.083 2103.59 237.75C2098.26 244.25 2091.59 249.25 2083.59 252.75C2075.59 256.25 2066.59 258 2056.59 258Z" fill="#0093C7"/>
<path d="M2201.07 255V80H2229.57V255H2201.07ZM2259.58 255V131H2287.08L2287.58 148C2291.75 141.5 2297.5 136.583 2304.83 133.25C2312.17 129.75 2319.83 128 2327.83 128C2342.33 128 2354.08 132.583 2363.08 141.75C2372.08 150.917 2376.58 164.417 2376.58 182.25V255H2348.58V185.75C2348.58 175.25 2346.08 167 2341.08 161C2336.08 155 2328.75 152 2319.08 152C2309.42 152 2301.75 155.25 2296.08 161.75C2290.58 168.083 2287.83 176.75 2287.83 187.75V255H2259.58ZM2449.94 255C2437.27 255 2427.6 251.917 2420.94 245.75C2414.27 239.583 2410.94 229.75 2410.94 216.25V154.75H2393.19V131H2410.94V101H2439.44V131H2469.69V154.75H2439.44V216.5C2439.44 222.167 2440.77 226.083 2443.44 228.25C2446.1 230.25 2450.1 231.25 2455.44 231.25H2469.69V255H2449.94ZM2546.83 258C2534.33 258 2523.42 255.25 2514.08 249.75C2504.75 244.083 2497.42 236.417 2492.08 226.75C2486.92 216.917 2484.33 205.667 2484.33 193C2484.33 179.833 2486.92 168.417 2492.08 158.75C2497.42 149.083 2504.75 141.583 2514.08 136.25C2523.58 130.75 2534.58 128 2547.08 128C2559.25 128 2569.83 130.667 2578.83 136C2587.83 141.167 2594.92 148.333 2600.08 157.5C2605.25 166.667 2607.83 177.083 2607.83 188.75C2607.83 191.083 2607.75 193.167 2607.58 195C2607.58 196.833 2607.42 198.833 2607.08 201H2512.83C2513.33 207.5 2515 213.333 2517.83 218.5C2520.67 223.5 2524.5 227.417 2529.33 230.25C2534.33 233.083 2540 234.5 2546.33 234.5C2553.17 234.5 2558.92 233 2563.58 230C2568.42 227 2572.17 222.667 2574.83 217H2604.58C2602.25 224.5 2598.5 231.333 2593.33 237.5C2588.33 243.667 2581.92 248.667 2574.08 252.5C2566.42 256.167 2557.33 258 2546.83 258ZM2513.08 181.25H2578.83C2578.67 172.083 2575.42 164.833 2569.08 159.5C2562.75 154.167 2555.17 151.5 2546.33 151.5C2538.33 151.5 2531.08 153.917 2524.58 158.75C2518.25 163.583 2514.42 171.083 2513.08 181.25ZM2628.24 255V131H2655.74L2656.24 151.25C2660.4 143.917 2665.99 138.25 2672.99 134.25C2680.15 130.083 2688.4 128 2697.74 128V157.75H2689.99C2678.65 157.75 2670.24 160.583 2664.74 166.25C2659.24 171.917 2656.49 180.75 2656.49 192.75V255H2628.24ZM2769.97 258C2757.8 258 2747.05 255.25 2737.72 249.75C2728.39 244.25 2721.05 236.667 2715.72 227C2710.39 217.167 2707.72 205.833 2707.72 193C2707.72 180.333 2710.3 169.167 2715.47 159.5C2720.64 149.667 2727.89 142 2737.22 136.5C2746.55 130.833 2757.47 128 2769.97 128C2784.97 128 2797.55 131.833 2807.72 139.5C2818.05 147 2824.89 157.75 2828.22 171.75H2798.22C2796.72 165.917 2793.47 161.167 2788.47 157.5C2783.47 153.833 2777.22 152 2769.72 152C2762.22 152 2756.05 153.917 2751.22 157.75C2746.39 161.417 2742.72 166.417 2740.22 172.75C2737.89 178.917 2736.72 185.667 2736.72 193C2736.72 200.667 2737.97 207.583 2740.47 213.75C2742.97 219.917 2746.64 224.833 2751.47 228.5C2756.47 232.167 2762.55 234 2769.72 234C2777.05 234 2783.14 232.333 2787.97 229C2792.97 225.5 2796.39 220.583 2798.22 214.25H2828.22C2826.22 223.25 2822.47 231.083 2816.97 237.75C2811.64 244.25 2804.97 249.25 2796.97 252.75C2788.97 256.25 2779.97 258 2769.97 258ZM2850.4 255V80H2878.65V147.75C2882.82 141.25 2888.57 136.333 2895.9 133C2903.4 129.667 2911.07 128 2918.9 128C2933.24 128 2944.9 132.583 2953.9 141.75C2962.9 150.917 2967.4 164.417 2967.4 182.25V255H2939.4V185.75C2939.4 175.25 2936.9 167 2931.9 161C2927.07 155 2919.9 152 2910.4 152C2900.57 152 2892.82 155.25 2887.15 161.75C2881.49 168.083 2878.65 176.75 2878.65 187.75V255H2850.4ZM3030.76 258C3023.1 258 3015.93 256.583 3009.26 253.75C3002.76 250.75 2997.51 246.417 2993.51 240.75C2989.68 235.083 2987.76 228.333 2987.76 220.5C2987.76 211.167 2990.1 203.583 2994.76 197.75C2999.43 191.917 3005.76 187.667 3013.76 185C3021.76 182.167 3030.6 180.75 3040.26 180.75H3071.26C3071.26 174.083 3070.18 168.667 3068.01 164.5C3065.85 160.167 3062.85 157 3059.01 155C3055.18 152.833 3050.68 151.75 3045.51 151.75C3038.85 151.75 3033.01 153.25 3028.01 156.25C3023.01 159.25 3019.93 164.167 3018.76 171H2990.26C2991.1 162 2994.1 154.333 2999.26 148C3004.6 141.5 3011.35 136.583 3019.51 133.25C3027.68 129.75 3036.43 128 3045.76 128C3057.76 128 3067.68 130.25 3075.51 134.75C3083.51 139.083 3089.51 145.167 3093.51 153C3097.68 160.833 3099.76 169.917 3099.76 180.25V218C3099.93 222.5 3101.01 225.75 3103.01 227.75C3105.18 229.75 3108.51 230.833 3113.01 231V255C3106.01 255 3100.01 254.25 3095.01 252.75C3090.01 251.25 3085.85 249 3082.51 246C3079.35 243 3076.76 239.083 3074.76 234.25C3070.76 240.917 3064.85 246.583 3057.01 251.25C3049.35 255.75 3040.6 258 3030.76 258ZM3038.01 235C3044.51 235 3050.18 233.5 3055.01 230.5C3060.01 227.333 3063.93 223.167 3066.76 218C3069.76 212.667 3071.26 206.833 3071.26 200.5V199.75H3042.26C3037.93 199.75 3033.76 200.333 3029.76 201.5C3025.76 202.667 3022.6 204.583 3020.26 207.25C3017.93 209.75 3016.76 213.25 3016.76 217.75C3016.76 223.75 3018.85 228.167 3023.01 231C3027.18 233.667 3032.18 235 3038.01 235ZM3131.65 255V131H3159.15L3159.65 148C3163.82 141.5 3169.57 136.583 3176.9 133.25C3184.24 129.75 3191.9 128 3199.9 128C3214.4 128 3226.15 132.583 3235.15 141.75C3244.15 150.917 3248.65 164.417 3248.65 182.25V255H3220.65V185.75C3220.65 175.25 3218.15 167 3213.15 161C3208.15 155 3200.82 152 3191.15 152C3181.49 152 3173.82 155.25 3168.15 161.75C3162.65 168.083 3159.9 176.75 3159.9 187.75V255H3131.65ZM3325.04 313C3314.2 313 3304.29 311.75 3295.29 309.25C3286.29 306.75 3279.04 302.667 3273.54 297C3268.2 291.333 3265.54 283.833 3265.54 274.5C3265.54 268.333 3266.87 263.083 3269.54 258.75C3272.37 254.417 3276.37 250.833 3281.54 248C3277.37 245.5 3274.12 242.417 3271.79 238.75C3269.45 234.917 3268.29 230.583 3268.29 225.75C3268.29 215.083 3273.29 206.75 3283.29 200.75C3279.62 196.917 3276.79 192.583 3274.79 187.75C3272.95 182.917 3272.04 177.75 3272.04 172.25C3272.04 163.083 3274.12 155.25 3278.29 148.75C3282.62 142.083 3288.54 137 3296.04 133.5C3303.7 129.833 3312.45 128 3322.29 128C3329.29 128 3335.87 129 3342.04 131H3385.79V153H3367.79C3369.12 156 3370.2 159.083 3371.04 162.25C3372.04 165.417 3372.54 168.75 3372.54 172.25C3372.54 181.083 3370.29 188.833 3365.79 195.5C3361.29 202.167 3355.29 207.333 3347.79 211C3340.29 214.5 3331.79 216.25 3322.29 216.25C3317.95 216.25 3313.95 215.833 3310.29 215C3306.62 214.167 3303.04 212.917 3299.54 211.25C3295.7 213.25 3293.79 216.333 3293.79 220.5C3293.79 228.167 3300.2 232 3313.04 232H3335.04C3344.87 232 3353.29 233.333 3360.29 236C3367.45 238.5 3372.95 242.667 3376.79 248.5C3380.62 254.167 3382.54 261.5 3382.54 270.5C3382.54 279.5 3379.87 287.167 3374.54 293.5C3369.37 299.833 3362.37 304.667 3353.54 308C3344.87 311.333 3335.37 313 3325.04 313ZM3324.79 290.5C3333.45 290.5 3340.79 289 3346.79 286C3352.95 283 3356.04 278.5 3356.04 272.5C3356.04 261.167 3348.54 255.5 3333.54 255.5H3314.54C3307.37 255.5 3301.79 256.917 3297.79 259.75C3293.95 262.75 3292.04 267 3292.04 272.5C3292.04 277 3293.54 280.5 3296.54 283C3299.54 285.667 3303.54 287.583 3308.54 288.75C3313.54 289.917 3318.95 290.5 3324.79 290.5ZM3321.79 193.75C3328.95 193.75 3334.79 191.75 3339.29 187.75C3343.95 183.75 3346.29 178.583 3346.29 172.25C3346.29 165.917 3343.95 160.75 3339.29 156.75C3334.79 152.583 3328.95 150.5 3321.79 150.5C3314.79 150.5 3309.04 152.583 3304.54 156.75C3300.2 160.75 3298.04 165.917 3298.04 172.25C3298.04 178.583 3300.12 183.75 3304.29 187.75C3308.62 191.75 3314.45 193.75 3321.79 193.75ZM3458.94 258C3446.44 258 3435.52 255.25 3426.19 249.75C3416.86 244.083 3409.52 236.417 3404.19 226.75C3399.02 216.917 3396.44 205.667 3396.44 193C3396.44 179.833 3399.02 168.417 3404.19 158.75C3409.52 149.083 3416.86 141.583 3426.19 136.25C3435.69 130.75 3446.69 128 3459.19 128C3471.36 128 3481.94 130.667 3490.94 136C3499.94 141.167 3507.02 148.333 3512.19 157.5C3517.36 166.667 3519.94 177.083 3519.94 188.75C3519.94 191.083 3519.86 193.167 3519.69 195C3519.69 196.833 3519.52 198.833 3519.19 201H3424.94C3425.44 207.5 3427.11 213.333 3429.94 218.5C3432.77 223.5 3436.61 227.417 3441.44 230.25C3446.44 233.083 3452.11 234.5 3458.44 234.5C3465.27 234.5 3471.02 233 3475.69 230C3480.52 227 3484.27 222.667 3486.94 217H3516.69C3514.36 224.5 3510.61 231.333 3505.44 237.5C3500.44 243.667 3494.02 248.667 3486.19 252.5C3478.52 256.167 3469.44 258 3458.94 258ZM3425.19 181.25H3490.94C3490.77 172.083 3487.52 164.833 3481.19 159.5C3474.86 154.167 3467.27 151.5 3458.44 151.5C3450.44 151.5 3443.19 153.917 3436.69 158.75C3430.36 163.583 3426.52 171.083 3425.19 181.25Z" fill="#07A77F"/>
<path fill-rule="evenodd" clip-rule="evenodd" d="M155.763 211.581L155.769 211.576L182.639 238.446L174.154 246.931L161.761 234.539V266.537H149.761V234.531L137.368 246.926L128.882 238.44L155.753 211.57L155.763 211.581ZM155.755 228.537H155.759L155.757 228.535L155.755 228.537Z" fill="#4ABE53"/>
<path d="M161.761 266.537V254.539C159.831 257.818 151.8 257.631 149.761 254.531V266.537H161.761Z" fill="#04A685"/>
<path d="M150.556 262.362C154.258 261.318 158.167 261.412 161.822 262.625C171.361 265.79 177.232 275.836 175.596 286.197C173.961 296.563 165.317 304.084 155.314 303.848C145.312 303.617 136.994 295.697 135.798 285.273C134.602 274.844 140.892 265.081 150.556 262.362Z" fill="#0093C7"/>
<path fill-rule="evenodd" clip-rule="evenodd" d="M189.41 191.379L189.409 191.371L226.114 181.536L229.22 193.127L212.292 197.663L240.003 213.662L234.003 224.055L206.285 208.052L210.822 224.982L199.231 228.088L189.396 191.383L189.41 191.379ZM204.091 199.863L204.093 199.86L204.09 199.861L204.091 199.863Z" fill="#4ABE53"/>
<path d="M240.003 213.662L229.612 207.663C231.487 210.974 227.309 217.836 223.605 218.052L234.003 224.055L240.003 213.662Z" fill="#04A685"/>
<path d="M230.785 221.279C231.731 217.551 233.768 214.213 236.645 211.654C244.156 204.975 255.791 204.914 263.946 211.511C272.106 218.11 274.297 229.357 269.092 237.901C263.89 246.448 252.872 249.691 243.247 245.515C233.617 241.336 228.307 231.008 230.785 221.279Z" fill="#0093C7"/>
<path fill-rule="evenodd" clip-rule="evenodd" d="M189.408 154.641L189.401 154.638L199.236 117.933L210.827 121.039L206.291 137.967L234.002 121.968L240.002 132.361L212.284 148.364L229.215 152.9L226.109 164.491L189.404 154.656L189.408 154.641ZM204.096 146.17L204.094 146.166L204.094 146.169L204.096 146.17Z" fill="#4ABE53"/>
<path d="M234.002 121.968L223.612 127.967C227.417 127.999 231.27 135.048 229.605 138.364L240.002 132.361L234.002 121.968Z" fill="#04A685"/>
<path d="M235.99 133.76C233.234 131.076 231.361 127.644 230.584 123.872C228.555 114.028 234.32 103.921 244.111 100.157C253.906 96.3904 264.741 100.116 269.538 108.896C274.339 117.674 271.639 128.837 263.21 135.085C254.776 141.335 243.176 140.77 235.99 133.76Z" fill="#0093C7"/>
<path fill-rule="evenodd" clip-rule="evenodd" d="M156.223 134.983L156.217 134.988L129.347 108.118L137.832 99.6323L150.225 112.025L150.225 80.0269L162.225 80.0269L162.225 112.033L174.618 99.6382L183.104 108.124L156.234 134.994L156.223 134.983ZM156.231 118.027H156.227L156.229 118.029L156.231 118.027Z" fill="#4ABE53"/>
<path d="M150.225 80.0269V92.0249C152.155 88.7456 160.186 88.9331 162.225 92.0327V80.0269H150.225Z" fill="#04A685"/>
<path d="M161.43 84.2015C157.728 85.2459 153.819 85.1515 150.164 83.939C140.625 80.7741 134.754 70.7281 136.39 60.3672C138.025 50.001 146.669 42.4796 156.672 42.7158C166.674 42.9468 174.992 50.867 176.188 61.2909C177.384 71.7201 171.094 81.4826 161.43 84.2015Z" fill="#0093C7"/>
<path fill-rule="evenodd" clip-rule="evenodd" d="M120.737 155.446L120.738 155.453L84.0326 165.288L80.9267 153.697L97.8553 149.161L70.1442 133.162L76.1442 122.77L103.862 138.773L99.3249 121.842L110.916 118.736L120.751 155.442L120.737 155.446ZM106.056 146.961L106.054 146.964L106.057 146.963L106.056 146.961Z" fill="#4ABE53"/>
<path d="M70.1441 133.162L80.5347 139.161C78.6599 135.85 82.8379 128.988 86.5415 128.773L76.1441 122.77L70.1441 133.162Z" fill="#04A685"/>
<path d="M79.3622 125.545C78.4158 129.273 76.3795 132.611 73.5019 135.17C65.9913 141.849 54.3559 141.91 46.2009 135.314C38.0413 128.714 35.8496 117.468 41.0554 108.923C46.2566 100.376 57.2745 97.1332 66.8999 101.309C76.5298 105.488 81.8397 115.816 79.3622 125.545Z" fill="#0093C7"/>
<path fill-rule="evenodd" clip-rule="evenodd" d="M122.67 194.164L122.677 194.166L112.842 230.871L101.251 227.766L105.787 210.837L78.0757 226.836L72.0757 216.444L99.7936 200.441L82.8628 195.905L85.9687 184.314L122.674 194.149L122.67 194.164ZM107.982 202.635L107.984 202.638L107.984 202.636L107.982 202.635Z" fill="#4ABE53"/>
<path d="M78.0756 226.836L88.4663 220.837C84.6612 220.805 80.808 213.756 82.473 210.441L72.0756 216.444L78.0756 226.836Z" fill="#04A685"/>
<path d="M76.0883 215.045C78.8439 217.728 80.7166 221.161 81.4941 224.932C83.5229 234.776 77.758 244.883 67.9675 248.647C58.1724 252.414 47.3367 248.689 42.54 239.908C37.7387 231.13 40.4391 219.967 48.8685 213.719C57.3024 207.469 68.9018 208.035 76.0883 215.045Z" fill="#0093C7"/>
<path d="M151.418 150.47C160.094 148.903 168.941 152.13 174.57 158.916C180.198 165.702 181.734 174.993 178.59 183.23C175.446 191.466 168.108 197.37 159.39 198.678C146.185 200.661 133.834 191.675 131.656 178.501C129.477 165.327 138.278 152.844 151.418 150.47Z" fill="#4ABE53"/>
<path d="M150.445 0.21919C157.753 -0.20331 162.819 -0.38432 169.536 3.27168C179.734 8.82218 189.92 15.0057 199.948 20.8947L254.347 52.7402C265.104 59.0272 275.901 65.2472 286.736 71.3992C291.48 74.1352 299.282 78.2022 303.163 81.6442C315.145 92.2727 312.117 116.466 312.091 131.081L312.053 180.328L312.088 222.504C312.116 261.264 313.604 259.719 280.046 279.384L241.877 301.764C223.389 312.634 205.219 324.149 186.404 334.389C178.984 338.429 169.565 344.909 161.804 347.349L161.328 347.439C155.197 348.609 148.589 348.109 143.149 344.969C133.961 339.664 124.741 334.224 115.571 328.879L56.8828 294.594L28.9578 278.339C23.8918 275.394 18.7268 272.469 13.7913 269.314C-2.88774 258.659 0.223761 237.144 0.239261 219.634L0.26176 171.894L0.235759 126.692C0.232259 117.196 -0.16174 107.322 0.80376 97.8852C2.42426 82.0417 16.0253 77.0777 27.8108 70.2317L62.6168 49.9467L115.554 19.0302C123.741 14.2462 142.555 2.35769 150.445 0.21919ZM159.101 331.754C165.896 329.249 174.761 323.589 181.204 319.809L213.612 300.744L262.327 272.029C267.143 269.189 294.305 254.204 295.665 249.789C297.994 242.229 297.229 224.289 297.229 215.614L297.222 168.705L297.204 126.408C297.201 118.948 297.337 111.426 297.07 103.978C296.834 97.3967 293.774 93.7062 288.487 90.4622C278.434 84.2932 268.206 78.4652 258.005 72.5562L202.986 40.7072L175.841 24.9432C167.912 20.3442 162.849 15.7062 153.41 16.2437C147.833 17.5687 131.809 27.5762 126.075 30.9157L90.5203 51.5887L46.2313 77.2862C40.6768 80.5132 21.5258 90.7767 17.9828 95.1617C14.0433 100.039 15.0843 117.555 15.0803 124.957L15.0683 166.098L15.0713 214.429C15.0723 221.329 15.0393 228.339 15.0673 235.144C15.0938 241.674 14.8738 251.069 20.8763 255.164C26.2863 258.849 32.5058 262.279 38.2028 265.589L71.0738 284.799L122.886 314.909C131.771 320.149 141.502 326.279 150.722 330.909C153.078 332.094 156.48 332.119 159.101 331.754Z" fill="#0093C7"/>
</svg>
