<svg viewBox="0 0 313 349" fill="none" xmlns="http://www.w3.org/2000/svg">
<path fill-rule="evenodd" clip-rule="evenodd" d="M155.763 211.581L155.769 211.576L182.639 238.446L174.154 246.931L161.761 234.539V266.537H149.761V234.531L137.368 246.926L128.882 238.44L155.753 211.57L155.763 211.581ZM155.755 228.537H155.759L155.757 228.535L155.755 228.537Z" fill="#4ABE53"/>
<path d="M161.761 266.537V254.539C159.831 257.818 151.8 257.631 149.761 254.531V266.537H161.761Z" fill="#04A685"/>
<path d="M150.556 262.362C154.258 261.318 158.167 261.412 161.822 262.625C171.361 265.79 177.232 275.836 175.596 286.197C173.961 296.563 165.317 304.084 155.314 303.848C145.312 303.617 136.994 295.697 135.798 285.273C134.602 274.844 140.892 265.081 150.556 262.362Z" fill="#0093C7"/>
<path fill-rule="evenodd" clip-rule="evenodd" d="M189.41 191.379L189.409 191.371L226.114 181.536L229.22 193.127L212.292 197.663L240.003 213.662L234.003 224.055L206.285 208.052L210.822 224.982L199.231 228.088L189.396 191.383L189.41 191.379ZM204.091 199.863L204.093 199.86L204.09 199.861L204.091 199.863Z" fill="#4ABE53"/>
<path d="M240.003 213.662L229.612 207.663C231.487 210.974 227.309 217.836 223.605 218.052L234.003 224.055L240.003 213.662Z" fill="#04A685"/>
<path d="M230.785 221.279C231.731 217.551 233.768 214.213 236.645 211.654C244.156 204.975 255.791 204.914 263.946 211.511C272.106 218.11 274.297 229.357 269.092 237.901C263.89 246.448 252.872 249.691 243.247 245.515C233.617 241.336 228.307 231.008 230.785 221.279Z" fill="#0093C7"/>
<path fill-rule="evenodd" clip-rule="evenodd" d="M189.408 154.641L189.401 154.638L199.236 117.933L210.827 121.039L206.291 137.967L234.002 121.968L240.002 132.361L212.284 148.364L229.215 152.9L226.109 164.491L189.404 154.656L189.408 154.641ZM204.096 146.17L204.094 146.166L204.094 146.169L204.096 146.17Z" fill="#4ABE53"/>
<path d="M234.002 121.968L223.612 127.967C227.417 127.999 231.27 135.048 229.605 138.364L240.002 132.361L234.002 121.968Z" fill="#04A685"/>
<path d="M235.99 133.76C233.234 131.076 231.361 127.644 230.584 123.872C228.555 114.028 234.32 103.921 244.111 100.157C253.906 96.3904 264.741 100.116 269.538 108.896C274.339 117.674 271.639 128.837 263.21 135.085C254.776 141.335 243.176 140.77 235.99 133.76Z" fill="#0093C7"/>
<path fill-rule="evenodd" clip-rule="evenodd" d="M156.223 134.983L156.217 134.988L129.347 108.118L137.832 99.6323L150.225 112.025L150.225 80.0269L162.225 80.0269L162.225 112.033L174.618 99.6382L183.104 108.124L156.234 134.994L156.223 134.983ZM156.231 118.027H156.227L156.229 118.029L156.231 118.027Z" fill="#4ABE53"/>
<path d="M150.225 80.0269V92.0249C152.155 88.7456 160.186 88.9331 162.225 92.0327V80.0269H150.225Z" fill="#04A685"/>
<path d="M161.43 84.2015C157.728 85.2459 153.819 85.1515 150.164 83.939C140.625 80.7741 134.754 70.7281 136.39 60.3672C138.025 50.001 146.669 42.4796 156.672 42.7158C166.674 42.9468 174.992 50.867 176.188 61.2909C177.384 71.7201 171.094 81.4826 161.43 84.2015Z" fill="#0093C7"/>
<path fill-rule="evenodd" clip-rule="evenodd" d="M120.737 155.446L120.738 155.453L84.0326 165.288L80.9267 153.697L97.8553 149.161L70.1442 133.162L76.1442 122.77L103.862 138.773L99.3249 121.842L110.916 118.736L120.751 155.442L120.737 155.446ZM106.056 146.961L106.054 146.964L106.057 146.963L106.056 146.961Z" fill="#4ABE53"/>
<path d="M70.1441 133.162L80.5347 139.161C78.6599 135.85 82.8379 128.988 86.5415 128.773L76.1441 122.77L70.1441 133.162Z" fill="#04A685"/>
<path d="M79.3622 125.545C78.4158 129.273 76.3795 132.611 73.5019 135.17C65.9913 141.849 54.3559 141.91 46.2009 135.314C38.0413 128.714 35.8496 117.468 41.0554 108.923C46.2566 100.376 57.2745 97.1332 66.8999 101.309C76.5298 105.488 81.8397 115.816 79.3622 125.545Z" fill="#0093C7"/>
<path fill-rule="evenodd" clip-rule="evenodd" d="M122.67 194.164L122.677 194.166L112.842 230.871L101.251 227.766L105.787 210.837L78.0757 226.836L72.0757 216.444L99.7936 200.441L82.8628 195.905L85.9687 184.314L122.674 194.149L122.67 194.164ZM107.982 202.635L107.984 202.638L107.984 202.636L107.982 202.635Z" fill="#4ABE53"/>
<path d="M78.0756 226.836L88.4663 220.837C84.6612 220.805 80.808 213.756 82.473 210.441L72.0756 216.444L78.0756 226.836Z" fill="#04A685"/>
<path d="M76.0883 215.045C78.8439 217.728 80.7166 221.161 81.4941 224.932C83.5229 234.776 77.758 244.883 67.9675 248.647C58.1724 252.414 47.3367 248.689 42.54 239.908C37.7387 231.13 40.4391 219.967 48.8685 213.719C57.3024 207.469 68.9018 208.035 76.0883 215.045Z" fill="#0093C7"/>
<path d="M151.418 150.47C160.094 148.903 168.941 152.13 174.57 158.916C180.198 165.702 181.734 174.993 178.59 183.23C175.446 191.466 168.108 197.37 159.39 198.678C146.185 200.661 133.834 191.675 131.656 178.501C129.477 165.327 138.278 152.844 151.418 150.47Z" fill="#4ABE53"/>
<path d="M150.445 0.21919C157.753 -0.20331 162.819 -0.38432 169.536 3.27168C179.734 8.82218 189.92 15.0057 199.948 20.8947L254.347 52.7402C265.104 59.0272 275.901 65.2472 286.736 71.3992C291.48 74.1352 299.282 78.2022 303.163 81.6442C315.145 92.2727 312.117 116.466 312.091 131.081L312.053 180.328L312.088 222.504C312.116 261.264 313.604 259.719 280.046 279.384L241.877 301.764C223.389 312.634 205.219 324.149 186.404 334.389C178.984 338.429 169.565 344.909 161.804 347.349L161.328 347.439C155.197 348.609 148.589 348.109 143.149 344.969C133.961 339.664 124.741 334.224 115.571 328.879L56.8828 294.594L28.9578 278.339C23.8918 275.394 18.7268 272.469 13.7913 269.314C-2.88774 258.659 0.223761 237.144 0.239261 219.634L0.26176 171.894L0.235759 126.692C0.232259 117.196 -0.16174 107.322 0.80376 97.8852C2.42426 82.0417 16.0253 77.0777 27.8108 70.2317L62.6168 49.9467L115.554 19.0302C123.741 14.2462 142.555 2.35769 150.445 0.21919ZM159.101 331.754C165.896 329.249 174.761 323.589 181.204 319.809L213.612 300.744L262.327 272.029C267.143 269.189 294.305 254.204 295.665 249.789C297.994 242.229 297.229 224.289 297.229 215.614L297.222 168.705L297.204 126.408C297.201 118.948 297.337 111.426 297.07 103.978C296.834 97.3967 293.774 93.7062 288.487 90.4622C278.434 84.2932 268.206 78.4652 258.005 72.5562L202.986 40.7072L175.841 24.9432C167.912 20.3442 162.849 15.7062 153.41 16.2437C147.833 17.5687 131.809 27.5762 126.075 30.9157L90.5203 51.5887L46.2313 77.2862C40.6768 80.5132 21.5258 90.7767 17.9828 95.1617C14.0433 100.039 15.0843 117.555 15.0803 124.957L15.0683 166.098L15.0713 214.429C15.0723 221.329 15.0393 228.339 15.0673 235.144C15.0938 241.674 14.8738 251.069 20.8763 255.164C26.2863 258.849 32.5058 262.279 38.2028 265.589L71.0738 284.799L122.886 314.909C131.771 320.149 141.502 326.279 150.722 330.909C153.078 332.094 156.48 332.119 159.101 331.754Z" fill="#0093C7"/>
</svg>
